<?xml version="1.0" encoding="UTF-8" standalone="no"?>
<!-- Created with Inkscape (http://www.inkscape.org/) -->

<svg
   xmlns:dc="http://purl.org/dc/elements/1.1/"
   xmlns:cc="http://creativecommons.org/ns#"
   xmlns:rdf="http://www.w3.org/1999/02/22-rdf-syntax-ns#"
   xmlns:svg="http://www.w3.org/2000/svg"
   xmlns="http://www.w3.org/2000/svg"
   xmlns:sodipodi="http://sodipodi.sourceforge.net/DTD/sodipodi-0.dtd"
   xmlns:inkscape="http://www.inkscape.org/namespaces/inkscape"
   width="50.799999mm"
   height="26.67mm"
   viewBox="0 0 50.799999 26.67"
   version="1.1"
   id="svg3788"
   inkscape:version="0.92.3 (unknown)"
   sodipodi:docname="logo.svg">
  <defs
     id="defs3782" />
  <sodipodi:namedview
     id="base"
     pagecolor="#ffffff"
     bordercolor="#666666"
     borderopacity="1.0"
     inkscape:pageopacity="0.0"
     inkscape:pageshadow="2"
     inkscape:zoom="2.8284271"
     inkscape:cx="150.89679"
     inkscape:cy="47.149958"
     inkscape:document-units="mm"
     inkscape:current-layer="layer1"
     showgrid="false"
     inkscape:window-width="1280"
     inkscape:window-height="769"
     inkscape:window-x="0"
     inkscape:window-y="6"
     inkscape:window-maximized="1"
     fit-margin-top="0"
     fit-margin-left="0"
     fit-margin-right="0"
     fit-margin-bottom="0" />
  <metadata
     id="metadata3785">
    <rdf:RDF>
      <cc:Work
         rdf:about="">
        <dc:format>image/svg+xml</dc:format>
        <dc:type
           rdf:resource="http://purl.org/dc/dcmitype/StillImage" />
        <dc:title></dc:title>
      </cc:Work>
    </rdf:RDF>
  </metadata>
  <g
     inkscape:label="Layer 1"
     inkscape:groupmode="layer"
     id="layer1"
     transform="translate(-108.94597,-163.18692)">
    <g
       id="g3925">
      <path
         style="fill:#f8f8f8;stroke-width:0.08466667"
         d="m 110.97797,176.47959 v -6.26534 h 23.41033 23.41034 v 6.26534 6.26533 H 134.3883 110.97797 Z m 21.7005,5.8038 c -0.009,-0.0443 -0.24947,-0.14431 -0.53421,-0.22225 -0.70652,-0.1934 -1.18496,-0.41917 -1.18496,-0.55916 0,-0.16172 0.4951,-1.12773 0.57799,-1.12773 0.0371,0 0.21757,0.072 0.40094,0.15992 0.80801,0.38757 1.91196,0.42666 2.46129,0.0872 0.30714,-0.18982 0.53912,-0.62042 0.53912,-1.0007 0,-0.32664 -0.10785,-0.33213 -0.64341,-0.0328 -0.51414,0.28735 -1.35236,0.31785 -2.05819,0.0749 -0.49731,-0.1712 -1.20052,-0.79645 -1.46745,-1.30476 -0.081,-0.15436 -0.18583,-0.25689 -0.23283,-0.22784 -0.0494,0.0306 -0.0855,0.46106 -0.0855,1.02148 v 0.96867 h -0.84666 c -0.78164,0 -0.84667,-0.0126 -0.84667,-0.16433 0,-0.27851 -0.15196,-0.2809 -0.6923,-0.0109 -0.4269,0.21333 -0.62005,0.25922 -1.07806,0.25617 -1.00558,-0.007 -1.65914,-0.38445 -2.0287,-1.17256 -0.21664,-0.46201 -0.22336,-0.52639 -0.25074,-2.40382 l -0.0281,-1.9291 0.91713,0.0241 0.91713,0.0241 0.0423,1.72164 0.0423,1.72164 0.28726,0.25647 c 0.25667,0.22916 0.33147,0.25222 0.70246,0.21658 0.54774,-0.0526 0.87292,-0.35524 0.99539,-0.92631 0.0491,-0.22881 0.0892,-1.0047 0.0892,-1.72419 v -1.30816 h 0.88583 0.88582 l 0.0243,0.77631 c 0.0134,0.42698 0.0625,0.78895 0.10914,0.80438 0.0466,0.0154 0.17727,-0.14628 0.2903,-0.35935 0.42126,-0.79407 1.33026,-1.30642 2.31625,-1.30554 0.66066,6e-4 1.08638,0.11701 1.40342,0.38378 0.31871,0.26818 0.41739,0.26283 0.45045,-0.0244 l 0.0268,-0.23283 h 0.84666 0.84667 v 2.58233 c 0,3.09433 -0.0374,3.29576 -0.74496,4.01695 -0.41703,0.42503 -0.54369,0.49389 -1.57637,0.85707 -0.51856,0.18237 0.88929,0.20501 11.5122,0.18512 l 11.4678,-0.0215 0.0229,-1.79917 c 0.0179,-1.40993 -4.3e-4,-1.79915 -0.0847,-1.79912 -0.0591,2e-5 -0.26954,0.18818 -0.46757,0.41813 -0.23902,0.27756 -0.5516,0.51235 -0.92985,0.69846 -0.5407,0.26605 -0.61743,0.28035 -1.50261,0.27997 -0.8373,-3.4e-4 -0.98319,-0.024 -1.42468,-0.23045 -0.29838,-0.13956 -0.67068,-0.41617 -0.94648,-0.70321 -0.4043,-0.42078 -0.47117,-0.54334 -0.60412,-1.10726 -0.12665,-0.53725 -0.13478,-0.71998 -0.0532,-1.19619 0.053,-0.30913 0.0772,-0.59299 0.0538,-0.63078 -0.0234,-0.0378 -0.28653,-0.0687 -0.58483,-0.0687 -0.71404,0 -0.75056,0.0677 -0.69991,1.29694 0.037,0.89701 0.0471,0.93842 0.27939,1.13821 0.20615,0.17733 0.29704,0.19992 0.62812,0.15611 l 0.38709,-0.0512 0.14817,0.50432 c 0.0815,0.27737 0.14816,0.55859 0.14816,0.62493 0,0.25909 -1.37331,0.40976 -2.04196,0.22403 -0.46941,-0.13039 -0.8574,-0.43226 -1.0907,-0.84859 -0.19347,-0.34525 -0.21531,-0.49045 -0.254,-1.68882 l -0.0423,-1.31109 -0.67733,-0.0965 c -0.37253,-0.0531 -0.81068,-0.14168 -0.97367,-0.19692 -0.16298,-0.0552 -0.57223,-0.10431 -0.90943,-0.10903 -0.65054,-0.009 -0.95323,0.1322 -0.95323,0.44506 0,0.24559 0.18606,0.32507 1.26248,0.53931 1.50676,0.29989 1.95485,0.66082 1.95485,1.5746 0,0.6864 -0.37713,1.19271 -1.143,1.53453 -0.33183,0.1481 -0.62465,0.19609 -1.35467,0.22203 -0.90591,0.0322 -1.24778,-0.0213 -2.31217,-0.36173 -0.15659,-0.0501 -0.20489,-0.0266 -0.2427,0.11799 -0.0442,0.16888 -0.10114,0.18051 -0.884,0.18051 -0.77187,0 -0.83679,-0.0127 -0.83679,-0.16433 0,-0.27851 -0.15196,-0.2809 -0.6923,-0.0109 -0.4269,0.21333 -0.62006,0.25922 -1.07806,0.25617 -1.00558,-0.007 -1.65915,-0.38445 -2.02871,-1.17256 -0.21664,-0.46201 -0.22335,-0.52639 -0.25073,-2.40382 l -0.0281,-1.9291 0.91713,0.0241 0.91713,0.0241 0.0423,1.72164 0.0423,1.72164 0.28725,0.25647 c 0.25668,0.22916 0.33147,0.25222 0.70246,0.21658 0.54775,-0.0526 0.87293,-0.35524 0.9954,-0.92631 0.0491,-0.22881 0.0892,-1.0047 0.0892,-1.72419 v -1.30816 h 0.88496 0.88496 l 0.0252,0.52244 c 0.0277,0.57496 0.1423,0.70147 0.32539,0.35935 0.16357,-0.30563 0.71386,-0.66761 1.26272,-0.8306 0.58384,-0.17338 1.70271,-0.17505 2.45627,-0.004 0.3197,0.0727 0.74632,0.12034 0.94805,0.10583 l 0.36677,-0.0264 0.0423,-0.67733 0.0423,-0.67734 0.86783,-0.0241 0.86784,-0.0241 v 0.57944 c 0,0.76728 0.0746,0.85379 0.762,0.88398 l 0.55033,0.0242 0.0252,0.52916 c 0.0146,0.3057 0.0637,0.52917 0.11632,0.52917 0.0501,0 0.24081,-0.17005 0.42375,-0.37789 0.77488,-0.88031 2.22791,-1.21211 3.54981,-0.81059 0.53745,0.16324 0.6813,0.25419 1.16139,0.73428 0.30985,0.30986 0.5799,0.51602 0.62147,0.47445 0.0404,-0.0404 0.0634,-1.2712 0.0511,-2.73505 l -0.0224,-2.66154 h -23.02934 -23.02933 l -0.0219,5.79967 c -0.0121,3.18982 -0.004,5.84744 0.0186,5.90583 0.0323,0.0845 2.2151,0.10177 10.68992,0.0847 6.67838,-0.0135 10.64322,-0.0515 10.63287,-0.10202 z m -20.96581,-2.21866 c -0.0315,-0.0316 -0.0574,-1.58645 -0.0574,-3.45532 0,-2.52997 0.026,-3.42391 0.1016,-3.49956 0.11884,-0.11884 5.19982,-0.14653 5.38456,-0.0293 0.0778,0.0494 0.10249,0.25238 0.0847,0.6972 l -0.0251,0.62754 -1.778,0.0467 c -0.9779,0.0257 -1.78753,0.0542 -1.79917,0.0635 -0.0116,0.009 -0.0212,0.30257 -0.0212,0.65182 v 0.635 h 1.50706 c 1.05928,0 1.53726,0.0302 1.60867,0.1016 0.11247,0.11247 0.13806,1.06459 0.0331,1.22988 -0.0471,0.0742 -0.49984,0.11043 -1.58621,0.127 l -1.52025,0.0232 v 0.67733 0.67734 h 1.94177 1.94178 l 1.21435,-2.74809 c 0.66789,-1.51145 1.26094,-2.77769 1.31789,-2.81387 0.13156,-0.0836 1.68068,-0.0867 1.80617,-0.004 0.18044,0.11945 3.15704,6.97118 3.04686,7.01346 -0.0573,0.022 -0.4966,0.0291 -0.97612,0.0157 l -0.87185,-0.0243 -0.22565,-0.56983 c -0.12411,-0.3134 -0.26539,-0.60956 -0.31396,-0.65813 -0.0566,-0.0566 -0.64506,-0.08 -1.64036,-0.0652 l -1.55205,0.0231 -0.26477,0.635 -0.26477,0.635 -3.51712,0.0221 c -1.93441,0.0121 -3.54293,-0.004 -3.57448,-0.0353 z m 10.14184,-2.81807 c 0.0611,-0.0988 -0.68995,-1.99428 -0.83927,-2.11821 -0.0781,-0.0648 -0.13201,-0.0602 -0.1912,0.0166 -0.12925,0.16764 -0.78752,1.8679 -0.7871,2.03305 3.4e-4,0.13162 0.0991,0.14816 0.88438,0.14816 0.4862,0 0.90614,-0.0358 0.93319,-0.0796 z m 21.47313,1.7122 c 0.1605,-0.42216 0.20142,-0.43335 0.81706,-0.22356 1.03778,0.35365 2.22395,0.2373 2.22395,-0.21815 0,-0.25747 -0.19753,-0.34408 -1.16208,-0.50957 -1.1086,-0.19021 -1.41328,-0.31087 -1.79351,-0.71027 -0.15872,-0.16672 -0.32064,-0.28332 -0.35983,-0.2591 -0.0392,0.0242 -0.0712,0.51804 -0.0712,1.09737 0,0.88746 0.0203,1.05334 0.12909,1.05334 0.071,0 0.16846,-0.10353 0.21657,-0.23006 z m 11.81078,-0.35293 c 0.34523,-0.21052 0.54356,-0.65169 0.54356,-1.20913 0,-0.82242 -0.48648,-1.36925 -1.21732,-1.36833 -0.50119,5.9e-4 -0.85122,0.21357 -1.06001,0.64487 -0.325,0.67137 -0.19315,1.42739 0.32498,1.86337 0.34012,0.28619 0.99984,0.3186 1.40879,0.0692 z m -20.83849,-0.34655 c 0.44639,-0.21609 0.63872,-0.54599 0.63872,-1.0956 0,-0.37026 -0.0397,-0.4759 -0.27517,-0.73225 -0.41985,-0.45707 -1.07244,-0.54632 -1.69708,-0.23207 -0.54907,0.27622 -0.73765,1.10144 -0.37557,1.64344 0.37426,0.56022 1.06464,0.72846 1.7091,0.41648 z"
         id="path3863"
         inkscape:connector-curvature="0" />
      <path
         style="fill:#ababab;stroke-width:0.08466667"
         d="m 110.8933,176.47959 v -6.35 h 23.495 23.495 v 6.35 6.35 h -23.495 -23.495 z m 46.90534,0 v -6.26534 H 134.3883 110.97797 v 6.26534 6.26533 h 23.41033 23.41034 z m -46.44296,5.82116 c -0.0223,-0.0584 -0.0307,-2.71601 -0.0186,-5.90583 l 0.0219,-5.79967 h 23.02933 23.02934 l 0.0224,2.66154 c 0.0123,1.46385 -0.0107,2.69462 -0.0511,2.73505 -0.0416,0.0416 -0.31162,-0.1646 -0.62147,-0.47445 -0.48009,-0.48009 -0.62394,-0.57104 -1.16139,-0.73429 -0.90696,-0.27548 -1.89893,-0.21626 -2.66087,0.15884 -0.33563,0.16523 -0.68826,0.42377 -0.88894,0.65176 -0.18294,0.20784 -0.37363,0.37789 -0.42375,0.37789 -0.0526,0 -0.10176,-0.22347 -0.11632,-0.52917 l -0.0252,-0.52917 -0.55033,-0.0242 c -0.68743,-0.0302 -0.762,-0.1167 -0.762,-0.88398 v -0.57945 l -0.86784,0.0241 -0.86783,0.0241 -0.0423,0.67733 -0.0423,0.67734 -0.36677,0.0264 c -0.20173,0.0145 -0.62835,-0.0331 -0.94805,-0.10583 -0.75356,-0.1714 -1.87243,-0.16973 -2.45627,0.004 -0.54886,0.16299 -1.09915,0.52497 -1.26272,0.8306 -0.18309,0.34212 -0.29765,0.2156 -0.32539,-0.35935 l -0.0252,-0.52244 h -0.88496 -0.88496 v 1.30816 c 0,0.71949 -0.0402,1.49538 -0.0892,1.72419 -0.12247,0.57107 -0.44765,0.87367 -0.9954,0.92631 -0.37099,0.0356 -0.44578,0.0126 -0.70246,-0.21658 l -0.28725,-0.25647 -0.0423,-1.72164 -0.0423,-1.72164 -0.91713,-0.0241 -0.91713,-0.0241 0.0281,1.9291 c 0.0274,1.87743 0.0341,1.94181 0.25073,2.40382 0.36956,0.78811 1.02313,1.16587 2.02871,1.17256 0.458,0.003 0.65116,-0.0428 1.07806,-0.25617 0.54034,-0.27001 0.6923,-0.26762 0.6923,0.0109 0,0.15158 0.0649,0.16433 0.83679,0.16433 0.78286,0 0.83983,-0.0116 0.884,-0.18051 0.0378,-0.14459 0.0861,-0.16807 0.2427,-0.11799 1.06439,0.34043 1.40626,0.39392 2.31217,0.36173 0.73002,-0.0259 1.02284,-0.0739 1.35467,-0.22203 0.76587,-0.34182 1.143,-0.84813 1.143,-1.53453 0,-0.91378 -0.44809,-1.27471 -1.95485,-1.5746 -1.07642,-0.21424 -1.26248,-0.29372 -1.26248,-0.53931 0,-0.31286 0.30269,-0.45419 0.95323,-0.44506 0.3372,0.005 0.74645,0.0538 0.90943,0.10903 0.16299,0.0552 0.60114,0.14385 0.97367,0.19692 l 0.67733,0.0965 0.0423,1.31109 c 0.0387,1.19837 0.0605,1.34357 0.254,1.68882 0.2333,0.41633 0.62129,0.7182 1.0907,0.84859 0.66865,0.18573 2.04196,0.0351 2.04196,-0.22403 0,-0.0663 -0.0667,-0.34756 -0.14816,-0.62493 l -0.14817,-0.50432 -0.38709,0.0512 c -0.33108,0.0438 -0.42197,0.0212 -0.62812,-0.15611 -0.23227,-0.19979 -0.24243,-0.2412 -0.27939,-1.13821 -0.0506,-1.22928 -0.0141,-1.29694 0.69991,-1.29694 0.2983,0 0.56147,0.0309 0.58483,0.0687 0.0234,0.0378 -8.6e-4,0.32165 -0.0538,0.63078 -0.0816,0.47621 -0.0734,0.65894 0.0532,1.19619 0.13295,0.56392 0.19982,0.68648 0.60412,1.10726 0.2758,0.28704 0.6481,0.56365 0.94648,0.70321 0.44149,0.20649 0.58738,0.23009 1.42468,0.23045 0.88518,3.4e-4 0.96191,-0.0139 1.50261,-0.27997 0.37825,-0.18611 0.69083,-0.4209 0.92985,-0.69846 0.19803,-0.22995 0.40844,-0.41811 0.46757,-0.41813 0.0843,-3e-5 0.10257,0.38919 0.0847,1.79912 l -0.0229,1.79917 -11.4678,0.0215 c -10.62291,0.0199 -12.03076,-0.003 -11.5122,-0.18512 1.03268,-0.36318 1.15934,-0.43204 1.57637,-0.85707 0.7076,-0.72119 0.74496,-0.92262 0.74496,-4.01695 v -2.58233 h -0.84667 -0.84666 l -0.0268,0.23283 c -0.0331,0.28725 -0.13174,0.2926 -0.45045,0.0244 -0.31704,-0.26677 -0.74276,-0.38318 -1.40342,-0.38378 -0.98599,-8.9e-4 -1.89499,0.51147 -2.31625,1.30554 -0.11303,0.21307 -0.24367,0.37478 -0.2903,0.35935 -0.0466,-0.0154 -0.0957,-0.3774 -0.10914,-0.80438 l -0.0243,-0.77631 h -0.88582 -0.88583 v 1.30816 c 0,0.71949 -0.0401,1.49538 -0.0892,1.72419 -0.12247,0.57107 -0.44765,0.87367 -0.99539,0.92631 -0.37099,0.0356 -0.44579,0.0126 -0.70246,-0.21658 l -0.28726,-0.25647 -0.0423,-1.72164 -0.0423,-1.72164 -0.91713,-0.0241 -0.91713,-0.0241 0.0281,1.9291 c 0.0274,1.87743 0.0341,1.94181 0.25074,2.40382 0.36956,0.78811 1.02312,1.16587 2.0287,1.17256 0.45801,0.003 0.65116,-0.0428 1.07806,-0.25617 0.54034,-0.27001 0.6923,-0.26762 0.6923,0.0109 0,0.15171 0.065,0.16433 0.84667,0.16433 h 0.84666 v -0.96867 c 0,-0.56042 0.036,-0.99093 0.0855,-1.02148 0.047,-0.029 0.15178,0.0735 0.23283,0.22784 0.26693,0.50831 0.97014,1.13356 1.46745,1.30476 0.70583,0.24297 1.54405,0.21247 2.05819,-0.0749 0.53556,-0.29933 0.64341,-0.29384 0.64341,0.0328 0,0.38028 -0.23198,0.81088 -0.53912,1.0007 -0.54933,0.33951 -1.65328,0.30042 -2.46129,-0.0872 -0.18337,-0.088 -0.36379,-0.15992 -0.40094,-0.15992 -0.0829,0 -0.57799,0.96601 -0.57799,1.12773 0,0.13999 0.47844,0.36576 1.18496,0.55916 0.28474,0.0779 0.52513,0.17795 0.53421,0.22225 0.0103,0.0505 -3.95449,0.0885 -10.63287,0.10202 -8.47482,0.0171 -10.65764,-1.7e-4 -10.68992,-0.0847 z m 20.65819,-0.0577 c 0.0267,-0.0432 -0.0377,-0.10473 -0.14317,-0.1367 -0.46368,-0.14056 -0.9878,-0.40308 -1.03136,-0.51658 -0.0451,-0.11766 0.31497,-0.91567 0.5606,-1.24229 0.11047,-0.14689 0.13647,-0.14333 0.57835,0.0793 0.35819,0.18043 0.61803,0.24134 1.15059,0.2697 1.07778,0.0574 1.52449,-0.18036 1.67896,-0.89365 0.0714,-0.32963 0.004,-0.34326 -0.48028,-0.0964 -0.49538,0.25273 -1.22143,0.30114 -1.86766,0.12452 -0.65269,-0.17838 -1.11654,-0.48826 -1.49638,-0.99965 -0.16067,-0.21632 -0.32259,-0.37447 -0.35984,-0.35145 -0.0372,0.023 -0.0677,0.4206 -0.0677,0.88352 v 0.84167 h -0.93133 c -0.51224,0 -0.93192,-0.0286 -0.93263,-0.0635 -6.8e-4,-0.0349 -0.0346,-0.11601 -0.0752,-0.18019 -0.0603,-0.0953 -0.1612,-0.074 -0.54982,0.11615 -0.43462,0.21264 -0.54063,0.22975 -1.22187,0.19718 -0.8413,-0.0402 -1.34395,-0.26172 -1.74303,-0.76809 -0.23287,-0.29549 -0.2954,-0.16575 -0.0918,0.19045 0.0665,0.11642 0.12235,0.27948 0.124,0.36236 0.003,0.13791 -0.0877,0.14869 -1.06502,0.127 l -1.06803,-0.0237 -0.2257,-0.56983 c -0.12413,-0.3134 -0.26548,-0.6096 -0.3141,-0.65823 -0.0565,-0.0565 -0.61806,-0.08 -1.5557,-0.0652 l -1.4673,0.0232 -0.26478,0.635 -0.26478,0.635 h -3.63796 -3.63796 v -3.59834 -3.59833 h 2.83633 2.83634 l 0.0243,0.78317 c 0.0134,0.43074 0.0134,0.79073 0,0.79998 -0.0134,0.009 -0.82444,0.0378 -1.80234,0.0635 l -1.778,0.0467 v 0.508 0.508 l 1.56633,0.0423 1.56633,0.0423 v 0.762 0.762 l -1.56633,0.0423 -1.56633,0.0423 v 0.59266 0.59267 h 1.85908 1.85908 l 1.23341,-2.794 1.23341,-2.794 0.97724,-0.0237 c 0.85059,-0.0206 0.99394,-0.004 1.10607,0.127 0.0709,0.0829 0.65595,1.35087 1.30021,2.81772 0.64426,1.46685 1.21235,2.72862 1.26244,2.80393 0.0658,0.099 0.083,-0.43765 0.0621,-1.9375 -0.0233,-1.66765 -0.007,-2.08855 0.0847,-2.14647 0.1882,-0.11928 1.73032,-0.091 1.83375,0.0336 0.0545,0.0657 0.10018,0.76716 0.1162,1.78512 l 0.0264,1.6769 0.2765,0.24688 c 0.31181,0.2784 0.58251,0.30923 0.99533,0.11333 0.48288,-0.22914 0.5485,-0.49543 0.5485,-2.22577 0,-1.8 -0.0585,-1.70469 1.04584,-1.70469 1.01138,0 0.98616,-0.0197 0.98616,0.77106 0,0.36755 0.0363,0.66828 0.0806,0.66828 0.0443,0 0.19341,-0.16397 0.3313,-0.36438 0.74483,-1.08258 2.53639,-1.47098 3.58481,-0.77718 0.3792,0.25095 0.40596,0.25476 0.40596,0.0578 0,-0.29034 0.17865,-0.35564 0.96943,-0.3543 0.42143,6.8e-4 0.8167,0.0333 0.87838,0.0724 0.0903,0.0572 0.10678,0.60649 0.0847,2.81387 l -0.0275,2.74277 -0.24485,0.53016 c -0.27057,0.58588 -0.70428,1.02885 -1.28232,1.30968 -0.20781,0.10096 -0.37783,0.21407 -0.37783,0.25136 0,0.0373 5.00253,0.0678 11.11673,0.0678 8.53346,0 11.14034,-0.0236 11.21833,-0.1016 0.10848,-0.10848 0.15244,-3.12135 0.0471,-3.2267 -0.03,-0.03 -0.20344,0.11466 -0.38545,0.32144 -0.20076,0.22808 -0.5533,0.48543 -0.8962,0.65425 -0.54401,0.26781 -0.60355,0.27827 -1.58305,0.27827 -0.93585,0 -1.05547,-0.0185 -1.48602,-0.22996 -0.25753,-0.12648 -0.635,-0.3727 -0.83881,-0.54716 l -0.37057,-0.31719 0.0617,0.25082 c 0.13939,0.56636 0.11382,0.64682 -0.24678,0.77638 -0.23286,0.0837 -0.59078,0.11245 -1.14562,0.0921 -0.6967,-0.0255 -0.86122,-0.0613 -1.20424,-0.26237 -0.40079,-0.23487 -0.75683,-0.71749 -0.87072,-1.18025 -0.0695,-0.28227 -0.16896,-0.24022 -0.23704,0.10017 -0.0735,0.36756 -0.58374,0.88671 -1.09393,1.11306 -0.66488,0.29499 -2.23324,0.33511 -3.16003,0.0808 -0.59769,-0.16397 -0.67539,-0.16914 -0.76199,-0.0507 -0.0769,0.10509 -0.27943,0.13188 -0.99727,0.13188 -0.49546,0 -0.90141,-0.0286 -0.90213,-0.0635 -6.7e-4,-0.0349 -0.0345,-0.11601 -0.0752,-0.18019 -0.0604,-0.0953 -0.16121,-0.074 -0.54982,0.11615 -0.4357,0.21317 -0.53964,0.2298 -1.22999,0.19679 -0.65357,-0.0312 -0.80863,-0.0697 -1.16338,-0.28852 -0.4609,-0.2843 -0.9043,-0.93452 -0.98972,-1.45136 -0.029,-0.17547 -0.0532,-1.12459 -0.0537,-2.10914 -8.5e-4,-1.5548 0.0167,-1.79687 0.13299,-1.8415 0.26486,-0.10164 1.70408,-0.0561 1.79783,0.0568 0.0545,0.0657 0.10019,0.76716 0.1162,1.78512 l 0.0264,1.6769 0.27651,0.24688 c 0.31181,0.2784 0.5825,0.30923 0.99532,0.11333 0.48288,-0.22914 0.54851,-0.49543 0.54851,-2.22577 0,-1.8 -0.0585,-1.70469 1.04584,-1.70469 0.9577,0 0.98616,0.0148 0.98616,0.51206 0,0.22511 0.0323,0.42923 0.0717,0.4536 0.0394,0.0244 0.18231,-0.0722 0.3175,-0.21456 0.73388,-0.77299 2.0603,-0.98719 3.77703,-0.60995 0.31235,0.0686 0.6743,0.11258 0.80433,0.0977 0.23271,-0.0267 0.23709,-0.0378 0.27876,-0.70447 l 0.0423,-0.67734 h 0.97367 0.97367 l 0.0423,0.67734 0.0423,0.67733 0.59267,0.0423 0.59267,0.0423 0.0254,0.48683 c 0.014,0.26776 0.0484,0.48683 0.0765,0.48683 0.0281,0 0.18023,-0.1508 0.338,-0.33511 0.15909,-0.18587 0.52105,-0.45041 0.81273,-0.59401 1.37629,-0.67754 3.01237,-0.45345 4.04191,0.5536 0.21115,0.20654 0.41118,0.37552 0.4445,0.37552 0.11172,0 0.0716,-4.95043 -0.041,-5.06306 -0.15178,-0.15179 -45.64897,-0.14758 -45.75912,0.004 -0.0914,0.12594 -0.0874,11.32991 0.004,11.47792 0.0777,0.12564 20.41765,0.14716 20.4952,0.0217 z m -12.94484,-2.8001 0.26477,-0.635 1.55205,-0.0231 c 0.9953,-0.0148 1.58373,0.009 1.64036,0.0652 0.0486,0.0486 0.18985,0.34473 0.31396,0.65814 l 0.22565,0.56982 0.87185,0.0243 c 0.47952,0.0134 0.91877,0.006 0.97612,-0.0157 0.11018,-0.0423 -2.86642,-6.89401 -3.04686,-7.01346 -0.12549,-0.0831 -1.67461,-0.08 -1.80617,0.004 -0.057,0.0362 -0.65,1.30242 -1.31789,2.81387 l -1.21435,2.74809 h -1.94178 -1.94177 v -0.67734 -0.67733 l 1.52025,-0.0232 c 1.08637,-0.0166 1.53908,-0.0528 1.58621,-0.127 0.105,-0.16529 0.0794,-1.11741 -0.0331,-1.22988 -0.0714,-0.0714 -0.54939,-0.1016 -1.60867,-0.1016 h -1.50706 v -0.635 c 0,-0.34925 0.01,-0.64257 0.0212,-0.65182 0.0116,-0.009 0.82127,-0.0378 1.79917,-0.0635 l 1.778,-0.0467 0.0251,-0.62754 c 0.0178,-0.44482 -0.007,-0.64782 -0.0847,-0.6972 -0.18474,-0.11719 -5.26572,-0.0895 -5.38456,0.0293 -0.0756,0.0756 -0.1016,0.96959 -0.1016,3.49956 0,1.86887 0.0258,3.42377 0.0574,3.45532 0.0315,0.0315 1.64007,0.0474 3.57448,0.0353 l 3.51712,-0.0221 z m 0.9679,-2.26483 c -4.2e-4,-0.16515 0.65785,-1.86541 0.7871,-2.03305 0.0592,-0.0768 0.11306,-0.0814 0.1912,-0.0166 0.14932,0.12393 0.90034,2.0194 0.83927,2.11821 -0.0271,0.0438 -0.44699,0.0796 -0.93319,0.0796 -0.78532,0 -0.88405,-0.0165 -0.88438,-0.14816 z m 1.69371,-0.0471 c 0,-0.1111 -0.53527,-1.48474 -0.69627,-1.78682 -0.0816,-0.15316 -0.0906,-0.15376 -0.17029,-0.0114 -0.20559,0.36737 -0.73475,1.76753 -0.69333,1.83455 0.0252,0.0408 0.38653,0.0742 0.80288,0.0742 0.56638,0 0.75701,-0.0278 0.75701,-0.11055 z m 29.65888,1.46885 c 0.0373,-0.0348 0.0224,-0.24364 -0.0331,-0.46417 -0.0644,-0.25579 -0.081,-0.66041 -0.0459,-1.11747 l 0.0551,-0.7165 -0.48765,0.0254 -0.48766,0.0254 -0.0246,0.93133 c -0.029,1.09741 2e-5,1.25401 0.25562,1.37847 0.19202,0.0935 0.63977,0.0571 0.76822,-0.0625 z m -3.09176,-1.37947 -0.0241,-0.86783 -0.59267,-0.0557 c -0.32597,-0.0306 -0.74507,-0.11469 -0.93133,-0.18679 -0.38726,-0.1499 -1.4127,-0.1814 -1.65657,-0.0509 -0.19233,0.10293 -0.21159,0.27527 -0.0461,0.4126 0.0647,0.0537 0.45524,0.1552 0.86783,0.22554 0.4126,0.0704 0.92706,0.18517 1.14326,0.25518 0.44173,0.14303 0.97562,0.61248 1.05465,0.92735 0.11934,0.47549 0.20785,0.16008 0.18506,-0.65948 z m -5.31579,0.91516 c 0,-0.57933 0.0321,-1.07315 0.0712,-1.09737 0.0392,-0.0242 0.20111,0.0924 0.35983,0.2591 0.38023,0.3994 0.68491,0.52006 1.79351,0.71027 0.96455,0.16549 1.16208,0.2521 1.16208,0.50957 0,0.45545 -1.18617,0.5718 -2.22395,0.21815 -0.61564,-0.20979 -0.65656,-0.1986 -0.81706,0.22356 -0.0481,0.12653 -0.14556,0.23006 -0.21657,0.23006 -0.10876,0 -0.12909,-0.16588 -0.12909,-1.05334 z m 0.54453,0.29138 c 0.0498,3e-5 0.30002,0.0804 0.55614,0.17863 0.26506,0.10165 0.75745,0.19721 1.143,0.22183 0.59626,0.0381 0.70266,0.0224 0.889,-0.13083 0.18819,-0.15478 0.19758,-0.18819 0.0847,-0.30137 -0.0699,-0.07 -0.48895,-0.18886 -0.93133,-0.26412 -1.12218,-0.1909 -1.39327,-0.28351 -1.76748,-0.60382 -0.17978,-0.15388 -0.35094,-0.25572 -0.38036,-0.2263 -0.0748,0.0748 -0.0672,1.50731 0.008,1.5829 0.034,0.034 0.11713,-0.0549 0.1847,-0.19756 0.0676,-0.14267 0.16356,-0.25938 0.21332,-0.25936 z m 10.20312,0.10975 c -0.51813,-0.43598 -0.64998,-1.192 -0.32498,-1.86337 0.20879,-0.4313 0.55882,-0.64424 1.06001,-0.64487 0.73084,-9.2e-4 1.21732,0.54591 1.21732,1.36833 0,0.88796 -0.4357,1.36789 -1.24234,1.36847 -0.35274,2.5e-4 -0.49095,-0.0442 -0.71001,-0.22856 z m 1.32413,-0.0154 c 0.65465,-0.39921 0.73016,-1.62761 0.13276,-2.15986 -0.25428,-0.22655 -0.9261,-0.27781 -1.27517,-0.0973 -0.31154,0.1611 -0.59526,0.69419 -0.59818,1.12393 -0.003,0.42911 0.24734,0.95373 0.54012,1.13226 0.33506,0.20432 0.86629,0.20475 1.20047,9.7e-4 z m -21.97609,-0.24265 c -0.62433,-0.31367 -0.86623,-1.10996 -0.51312,-1.68909 0.42267,-0.6932 1.5307,-0.77661 2.09893,-0.158 0.23547,0.25635 0.27517,0.36199 0.27517,0.73225 0,0.54961 -0.19233,0.87951 -0.63872,1.0956 -0.4271,0.20676 -0.83621,0.2132 -1.22226,0.0192 z m 1.15686,-0.10091 c 0.41521,-0.18851 0.61945,-0.5241 0.61945,-1.01783 0,-0.27241 -0.0592,-0.40871 -0.28406,-0.65408 -0.25382,-0.27696 -0.33721,-0.31369 -0.78317,-0.34492 -0.63169,-0.0442 -1.0297,0.18848 -1.21073,0.70789 -0.14207,0.4076 -0.0846,0.69217 0.21062,1.04302 0.35681,0.42404 0.88568,0.52118 1.44789,0.26592 z"
         id="path3861"
         inkscape:connector-curvature="0" />
      <path
         style="fill:#5e5e5e;stroke-width:0.08466667"
         d="m 110.80864,176.47959 v -6.43467 h 23.57966 23.57967 v 6.43467 6.43466 H 134.3883 110.80864 Z m 47.07466,0 v -6.35 h -23.495 -23.495 v 6.35 6.35 h 23.495 23.495 z m -46.36463,5.74175 c -0.0915,-0.14801 -0.0955,-11.35198 -0.004,-11.47792 0.11015,-0.15181 45.60734,-0.15602 45.75912,-0.004 0.11264,0.11263 0.15273,5.06306 0.041,5.06306 -0.0333,0 -0.23335,-0.16898 -0.4445,-0.37552 -1.02954,-1.00705 -2.66562,-1.23114 -4.04191,-0.5536 -0.29168,0.1436 -0.65364,0.40814 -0.81273,0.59401 -0.15777,0.18431 -0.30986,0.33511 -0.338,0.33511 -0.0281,0 -0.0626,-0.21907 -0.0765,-0.48683 l -0.0254,-0.48683 -0.59267,-0.0423 -0.59267,-0.0423 -0.0423,-0.67733 -0.0423,-0.67734 h -0.97367 -0.97367 l -0.0423,0.67734 c -0.0417,0.66667 -0.0461,0.67776 -0.27876,0.70447 -0.13003,0.0149 -0.49198,-0.029 -0.80433,-0.0977 -1.71673,-0.37724 -3.04315,-0.16304 -3.77703,0.60995 -0.13519,0.14238 -0.27806,0.23894 -0.3175,0.21456 -0.0394,-0.0244 -0.0717,-0.22849 -0.0717,-0.4536 0,-0.49728 -0.0285,-0.51206 -0.98616,-0.51206 -1.10432,0 -1.04584,-0.0953 -1.04584,1.70469 0,1.73034 -0.0656,1.99663 -0.54851,2.22577 -0.41282,0.1959 -0.68351,0.16507 -0.99532,-0.11333 l -0.27651,-0.24688 -0.0264,-1.6769 c -0.016,-1.01796 -0.0617,-1.71942 -0.1162,-1.78512 -0.0937,-0.11297 -1.53297,-0.15847 -1.79783,-0.0568 -0.11632,0.0446 -0.1338,0.2867 -0.13299,1.8415 5.1e-4,0.98455 0.0247,1.93367 0.0537,2.10914 0.0854,0.51684 0.52882,1.16706 0.98972,1.45136 0.35475,0.21882 0.50981,0.25727 1.16338,0.28852 0.69035,0.033 0.79429,0.0164 1.22999,-0.19679 0.38861,-0.19013 0.48946,-0.21143 0.54982,-0.11615 0.0406,0.0642 0.0745,0.14526 0.0752,0.18019 6.8e-4,0.0349 0.40667,0.0635 0.90213,0.0635 0.71784,0 0.92042,-0.0268 0.99727,-0.13188 0.0866,-0.11843 0.1643,-0.11326 0.76199,0.0507 0.92679,0.25426 2.49515,0.21414 3.16003,-0.0808 0.51019,-0.22635 1.02042,-0.7455 1.09393,-1.11306 0.0681,-0.34039 0.16758,-0.38244 0.23704,-0.10017 0.11389,0.46276 0.46993,0.94538 0.87072,1.18025 0.34302,0.20103 0.50754,0.23687 1.20424,0.26237 0.55484,0.0203 0.91276,-0.008 1.14562,-0.0921 0.3606,-0.12956 0.38617,-0.21002 0.24678,-0.77638 l -0.0617,-0.25082 0.37057,0.31719 c 0.20381,0.17446 0.58128,0.42068 0.83881,0.54716 0.43055,0.21145 0.55017,0.22996 1.48602,0.22996 0.9795,0 1.03904,-0.0105 1.58305,-0.27827 0.3429,-0.16882 0.69544,-0.42617 0.8962,-0.65425 0.18201,-0.20678 0.35547,-0.35143 0.38545,-0.32144 0.10536,0.10535 0.0614,3.11822 -0.0471,3.2267 -0.078,0.078 -2.68487,0.1016 -11.21833,0.1016 -6.1142,0 -11.11673,-0.0305 -11.11673,-0.0678 0,-0.0373 0.17002,-0.1504 0.37783,-0.25136 0.57804,-0.28083 1.01175,-0.7238 1.28232,-1.30968 l 0.24485,-0.53016 0.0275,-2.74277 c 0.0221,-2.20738 0.006,-2.75665 -0.0847,-2.81387 -0.0617,-0.0391 -0.45695,-0.0717 -0.87838,-0.0724 -0.79078,-0.001 -0.96943,0.064 -0.96943,0.3543 0,0.19694 -0.0268,0.19313 -0.40596,-0.0578 -1.04842,-0.6938 -2.83998,-0.3054 -3.58481,0.77718 -0.13789,0.20041 -0.28697,0.36438 -0.3313,0.36438 -0.0443,0 -0.0806,-0.30073 -0.0806,-0.66828 0,-0.79078 0.0252,-0.77106 -0.98616,-0.77106 -1.10432,0 -1.04584,-0.0953 -1.04584,1.70469 0,1.73034 -0.0656,1.99663 -0.5485,2.22577 -0.41282,0.1959 -0.68352,0.16507 -0.99533,-0.11333 l -0.2765,-0.24688 -0.0264,-1.6769 c -0.016,-1.01796 -0.0617,-1.71942 -0.1162,-1.78512 -0.10343,-0.12462 -1.64555,-0.15288 -1.83375,-0.0336 -0.0914,0.0579 -0.10798,0.47882 -0.0847,2.14647 0.021,1.49985 0.004,2.03651 -0.0621,1.9375 -0.0501,-0.0753 -0.61818,-1.33708 -1.26244,-2.80393 -0.64426,-1.46685 -1.22935,-2.73482 -1.30021,-2.81772 -0.11213,-0.13119 -0.25548,-0.14765 -1.10607,-0.127 l -0.97724,0.0237 -1.23341,2.794 -1.23341,2.794 h -1.85908 -1.85908 v -0.59267 -0.59266 l 1.56633,-0.0423 1.56633,-0.0423 v -0.762 -0.762 l -1.56633,-0.0423 -1.56633,-0.0423 v -0.508 -0.508 l 1.778,-0.0467 c 0.9779,-0.0257 1.78895,-0.0542 1.80234,-0.0635 0.0134,-0.009 0.0134,-0.36924 0,-0.79998 l -0.0243,-0.78317 h -2.83634 -2.83633 v 3.59833 3.59834 h 3.63796 3.63796 l 0.26478,-0.635 0.26478,-0.635 1.4673,-0.0232 c 0.93764,-0.0148 1.49921,0.009 1.5557,0.0652 0.0486,0.0486 0.18997,0.34483 0.3141,0.65823 l 0.2257,0.56983 1.06803,0.0237 c 0.97735,0.0217 1.06777,0.0109 1.06502,-0.127 -0.002,-0.0829 -0.0575,-0.24594 -0.124,-0.36236 -0.20362,-0.3562 -0.14109,-0.48594 0.0918,-0.19045 0.39908,0.50637 0.90173,0.72787 1.74303,0.76809 0.68124,0.0326 0.78725,0.0155 1.22187,-0.19718 0.38862,-0.19013 0.48947,-0.21143 0.54982,-0.11615 0.0406,0.0642 0.0745,0.14526 0.0752,0.18019 6.7e-4,0.0349 0.42039,0.0635 0.93263,0.0635 h 0.93133 v -0.84224 c 0,-0.46292 0.0305,-0.8605 0.0677,-0.88352 0.0373,-0.023 0.19917,0.13513 0.35984,0.35145 0.37984,0.51139 0.84369,0.82127 1.49638,0.99965 0.64623,0.17662 1.37228,0.12821 1.86766,-0.12452 0.48381,-0.24682 0.55166,-0.23319 0.48028,0.0964 -0.15447,0.71329 -0.60118,0.95106 -1.67896,0.89365 -0.53256,-0.0284 -0.7924,-0.0893 -1.15059,-0.2697 -0.44188,-0.22258 -0.46788,-0.22614 -0.57835,-0.0793 -0.24563,0.32662 -0.60574,1.12463 -0.5606,1.24229 0.0436,0.1135 0.56768,0.37602 1.03136,0.51658 0.10545,0.032 0.16988,0.0935 0.14317,0.1367 -0.0776,0.12548 -20.41754,0.10396 -20.4952,-0.0217 z m 19.97333,-0.0373 c 0.0291,-0.0291 -0.10501,-0.13388 -0.29803,-0.23284 -0.54938,-0.28165 -0.56292,-0.36281 -0.18506,-1.10869 0.18227,-0.35977 0.37756,-0.67297 0.43398,-0.69599 0.0564,-0.023 0.32005,0.0645 0.58582,0.19456 0.38509,0.1884 0.63079,0.24319 1.20975,0.26972 0.65577,0.0301 0.75525,0.0137 1.02173,-0.16773 0.27989,-0.19059 0.51429,-0.59983 0.40574,-0.70838 -0.0276,-0.0276 -0.17759,0.0193 -0.33326,0.10418 -0.21824,0.11906 -0.46913,0.15441 -1.0959,0.15441 -0.762,0 -0.84919,-0.0185 -1.39325,-0.29633 -0.38301,-0.19556 -0.67218,-0.41694 -0.85034,-0.65101 -0.14848,-0.19507 -0.29305,-0.3316 -0.32126,-0.30339 -0.0282,0.0282 -0.0513,0.38784 -0.0513,0.79918 v 0.74789 h -1.0103 c -0.90646,0 -1.01537,-0.016 -1.05971,-0.15571 -0.0466,-0.1468 -0.0739,-0.14359 -0.47727,0.056 -0.71637,0.35453 -1.91482,0.27634 -2.54579,-0.16609 -0.2635,-0.18476 -0.33812,-0.19685 -0.31928,-0.0517 0.0401,0.30873 0.009,0.3175 -1.13979,0.3175 H 122.935 l -0.23692,-0.5715 c -0.13031,-0.31433 -0.27336,-0.62002 -0.31788,-0.67933 -0.0611,-0.0814 -0.42344,-0.10215 -1.47903,-0.0847 l -1.39808,0.0232 -0.26474,0.635 -0.26475,0.635 -3.72266,0.0423 -3.72266,0.0423 -0.0244,0.84064 c -0.0134,0.46235 -0.005,0.89098 0.0185,0.9525 0.0352,0.0918 1.82288,0.11186 9.9798,0.11186 5.46528,0 9.96069,-0.0238 9.9898,-0.0529 z m 25.77965,-1.38317 c 0.0128,-0.76657 0.006,-1.43935 -0.0155,-1.49508 -0.0238,-0.0621 -0.16994,0.0233 -0.37705,0.22035 -0.72607,0.6907 -1.89625,1.02129 -3.0057,0.84915 -0.60394,-0.0937 -1.31179,-0.39179 -1.62586,-0.68467 -0.244,-0.22755 -0.2871,-0.20537 -0.23422,0.12054 0.0437,0.26956 0.0278,0.29087 -0.32282,0.43252 -0.4882,0.1972 -1.66267,0.20205 -2.18885,0.009 -0.46209,-0.1695 -0.90104,-0.57076 -1.10019,-1.00572 l -0.14787,-0.32295 -0.16675,0.32295 c -0.22189,0.42974 -0.77334,0.83957 -1.36397,1.01368 -0.67792,0.19985 -2.15217,0.17934 -2.92172,-0.0407 -0.47985,-0.13717 -0.58548,-0.14528 -0.62289,-0.0478 -0.0349,0.0909 -0.27082,0.11739 -1.04628,0.11739 -0.89766,0 -1.00635,-0.0161 -1.05066,-0.15571 -0.0466,-0.14694 -0.0732,-0.14394 -0.47211,0.0535 -0.50047,0.24768 -1.33151,0.29409 -1.97085,0.11008 -0.5572,-0.16038 -1.18951,-0.73954 -1.37459,-1.25906 -0.0783,-0.21989 -0.16468,-0.45695 -0.19188,-0.5268 -0.0272,-0.0699 -0.074,0.2921 -0.10404,0.80433 -0.0774,1.31995 -0.43855,2.07503 -1.23375,2.57933 -0.20223,0.12825 -0.34314,0.25774 -0.31314,0.28775 0.03,0.03 4.95345,0.0449 10.94097,0.0331 l 10.8864,-0.0215 z m -39.72913,-2.73375 c 0.117,-0.24448 0.68163,-1.5113 1.25474,-2.81517 l 1.04202,-2.37067 1.06909,-0.0237 c 1.03207,-0.0229 1.07345,-0.017 1.19522,0.16934 0.0694,0.10615 0.60549,1.27805 1.19138,2.60423 0.58589,1.32617 1.10225,2.44822 1.14746,2.49343 0.0532,0.0532 0.0822,-0.56367 0.0822,-1.746 0,-1.58898 0.0175,-1.83493 0.13392,-1.8796 0.25371,-0.0974 1.85925,-0.0564 1.96581,0.0502 0.0716,0.0716 0.1016,0.5594 0.1016,1.65372 0,1.80544 0.062,2.06286 0.53488,2.21891 0.24032,0.0793 0.356,0.0736 0.60391,-0.03 0.48862,-0.20416 0.55454,-0.47017 0.55454,-2.23779 0,-1.19288 0.0252,-1.53724 0.11795,-1.61425 0.0781,-0.0648 0.44304,-0.0898 1.0795,-0.0739 l 0.96155,0.024 0.0233,0.508 c 0.0128,0.2794 0.0401,0.55537 0.0606,0.61328 0.0223,0.0629 0.19239,-0.0605 0.4225,-0.30654 0.57449,-0.61418 1.24177,-0.88933 2.1622,-0.89159 0.62906,-0.002 0.77392,0.0276 1.1325,0.22804 0.49099,0.27442 0.47451,0.27226 0.47451,0.0621 0,-0.231 0.2426,-0.27547 1.23656,-0.2267 0.99296,0.0487 0.78695,0.0487 1.9656,-4e-5 0.66753,-0.0276 0.99523,-0.009 1.0795,0.0608 0.0969,0.0804 0.12101,0.41123 0.12101,1.65911 0,1.81254 0.0617,2.06932 0.53488,2.22548 0.24032,0.0793 0.356,0.0736 0.6039,-0.03 0.48863,-0.20416 0.55455,-0.47017 0.55455,-2.23779 0,-1.19288 0.0252,-1.53724 0.11795,-1.61425 0.0781,-0.0648 0.44304,-0.0898 1.0795,-0.0739 l 0.96155,0.024 0.0244,0.29633 c 0.0431,0.52261 0.0783,0.54689 0.39249,0.27099 0.67635,-0.59384 1.93376,-0.81046 3.26608,-0.56266 0.44238,0.0823 0.93768,0.15299 1.10067,0.15714 l 0.29633,0.008 0.0423,-0.67733 0.0423,-0.67734 h 1.05833 1.05833 l 0.0423,0.67734 0.0423,0.67733 0.59267,0.0423 0.59266,0.0423 0.0258,0.40216 c 0.0142,0.2212 0.038,0.40217 0.0529,0.40217 0.0149,0 0.1746,-0.13515 0.35495,-0.30034 1.25126,-1.14612 3.49095,-1.14452 4.76154,0.003 0.25143,0.22715 0.36129,0.2827 0.39343,0.19896 0.0245,-0.0639 0.0344,-1.14433 0.022,-2.40094 l -0.0226,-2.28473 h -22.86 -22.86 v 1.016 1.016 l 2.921,0.0423 2.921,0.0423 v 0.889 0.889 l -1.778,0.0423 -1.778,0.0423 v 0.42333 0.42334 l 1.56634,0.0423 1.56633,0.0423 v 0.84667 0.84667 l -1.56633,0.0423 -1.56634,0.0423 -0.0262,0.41258 c -0.0434,0.68207 -0.14473,0.64576 1.8025,0.64576 h 1.73924 z m 25.58596,0.81679 c -0.0756,-0.0756 -0.0831,-1.5081 -0.008,-1.5829 0.0294,-0.0294 0.20059,0.0724 0.38036,0.2263 0.37421,0.32031 0.64531,0.41292 1.76749,0.60382 0.44238,0.0753 0.86148,0.19411 0.93133,0.26412 0.11292,0.11318 0.10353,0.14659 -0.0847,0.30137 -0.18633,0.15325 -0.29273,0.16891 -0.889,0.13083 -0.38555,-0.0246 -0.87793,-0.12018 -1.143,-0.22183 -0.59953,-0.22992 -0.62353,-0.2274 -0.76946,0.0807 -0.0676,0.14267 -0.15068,0.23157 -0.18469,0.19756 z m 2.86831,-0.20644 c 0.38676,-0.14705 0.0889,-0.30963 -0.85582,-0.46708 -0.86111,-0.14352 -1.56753,-0.38518 -1.74259,-0.59612 -0.16264,-0.19596 -0.24708,-0.0467 -0.24708,0.43668 0,0.46822 0.0672,0.55875 0.25067,0.33768 0.0886,-0.10676 0.15882,-0.10063 0.5321,0.0465 0.81877,0.32274 1.60753,0.4154 2.06272,0.24234 z m 4.62451,-0.0151 c -0.2556,-0.12446 -0.28464,-0.28106 -0.25562,-1.37847 l 0.0246,-0.93133 0.48766,-0.0254 0.48765,-0.0254 -0.0551,0.7165 c -0.0351,0.45706 -0.0185,0.86168 0.0459,1.11747 0.0555,0.22053 0.0704,0.42941 0.0331,0.46417 -0.12845,0.11958 -0.5762,0.15601 -0.76822,0.0625 z m 0.6644,-0.28591 c -0.0198,-0.0887 -0.0388,-0.57251 -0.0423,-1.07518 l -0.006,-0.91396 -0.381,0.025 -0.381,0.0249 -0.0248,0.84667 c -0.0294,1.00632 0.0113,1.2125 0.25774,1.30365 0.28566,0.10567 0.62103,-0.0169 0.57774,-0.21109 z m 2.56758,0.14382 c -0.29278,-0.17853 -0.54304,-0.70315 -0.54012,-1.13226 0.003,-0.42974 0.28664,-0.96283 0.59818,-1.12393 0.34907,-0.18051 1.02089,-0.12925 1.27517,0.0973 0.5974,0.53225 0.52189,1.76065 -0.13276,2.15986 -0.33418,0.20378 -0.86541,0.20335 -1.20047,-9.7e-4 z m 1.33457,-0.25064 c 0.44846,-0.50191 0.41962,-1.28884 -0.065,-1.77345 -0.27159,-0.2716 -0.32106,-0.28895 -0.71575,-0.25102 -0.87747,0.0843 -1.24858,0.96104 -0.7882,1.86208 0.28192,0.55178 1.14154,0.64075 1.56895,0.16239 z m -21.91436,-0.0203 c -0.30467,-0.0882 -0.6787,-0.49043 -0.76101,-0.81837 -0.0873,-0.34774 0.14175,-0.87594 0.47882,-1.10429 0.24968,-0.16915 0.37492,-0.19525 0.79544,-0.16581 0.44596,0.0312 0.52935,0.068 0.78317,0.34492 0.22487,0.24537 0.28406,0.38167 0.28406,0.65408 0,0.49373 -0.20424,0.82932 -0.61945,1.01783 -0.38788,0.17611 -0.55672,0.18869 -0.96103,0.0716 z m 0.96661,-0.17138 c 0.24305,-0.0895 0.52848,-0.5546 0.52889,-0.86175 8.4e-4,-0.62618 -0.50821,-1.03653 -1.203,-0.96977 -1.13182,0.10875 -1.3367,1.51049 -0.27511,1.88222 0.32194,0.11273 0.53669,0.10126 0.94922,-0.0507 z m 13.8726,-0.19807 c -0.079,-0.31487 -0.61292,-0.78432 -1.05465,-0.92735 -0.2162,-0.07 -0.73066,-0.18483 -1.14326,-0.25518 -0.41259,-0.0703 -0.80312,-0.17183 -0.86783,-0.22554 -0.16548,-0.13733 -0.14622,-0.30967 0.0461,-0.4126 0.24387,-0.13052 1.26931,-0.099 1.65657,0.0509 0.18626,0.0721 0.60536,0.15616 0.93133,0.18679 l 0.59267,0.0557 0.0241,0.86783 c 0.0228,0.81956 -0.0657,1.13497 -0.18506,0.65948 z m 0.1018,-0.90091 -0.0255,-0.54174 -0.55033,-0.0521 c -0.30269,-0.0286 -0.73737,-0.11436 -0.96596,-0.1905 -0.46892,-0.15618 -1.24853,-0.18266 -1.49494,-0.0508 -0.36932,0.19765 -0.15847,0.29564 1.1837,0.5501 0.82427,0.15626 1.26316,0.3566 1.54368,0.70461 0.10955,0.13591 0.22972,0.21898 0.26705,0.18461 0.0373,-0.0344 0.0564,-0.30628 0.0423,-0.60423 z m -28.04375,0.18836 c -0.0414,-0.067 0.48774,-1.46718 0.69333,-1.83455 0.0797,-0.14234 0.0887,-0.14174 0.17029,0.0114 0.161,0.30208 0.69627,1.67572 0.69627,1.78682 0,0.0827 -0.19063,0.11055 -0.75701,0.11055 -0.41635,0 -0.77765,-0.0334 -0.80288,-0.0742 z m 1.47522,-0.0363 c 0,-0.0755 -0.61726,-1.55098 -0.67341,-1.6097 -0.06,-0.0627 -0.68126,1.35213 -0.68126,1.5515 0,0.0487 0.28536,0.0841 0.67734,0.0841 0.37253,0 0.67733,-0.0117 0.67733,-0.0259 z"
         id="path3859"
         inkscape:connector-curvature="0" />
      <g
         id="g3908">
        <path
           inkscape:connector-curvature="0"
           id="path3857"
           d="m 108.94597,176.52192 v -13.335 h 25.4 25.4 v 13.335 13.335 h -25.4 -25.4 z m 49.022,-0.0423 v -6.43467 H 134.3883 110.80864 v 6.43467 6.43466 h 23.57966 23.57967 z m -46.44557,5.64547 c -0.0236,-0.0615 -0.0319,-0.49015 -0.0185,-0.9525 l 0.0244,-0.84064 3.72266,-0.0423 3.72266,-0.0423 0.26475,-0.635 0.26474,-0.635 1.39808,-0.0232 c 1.05559,-0.0175 1.4179,0.003 1.47903,0.0847 0.0445,0.0593 0.18757,0.365 0.31788,0.67933 l 0.23692,0.5715 h 1.13348 c 1.14841,0 1.17988,-0.009 1.13979,-0.3175 -0.0188,-0.14511 0.0558,-0.13302 0.31928,0.0517 0.63097,0.44243 1.82942,0.52062 2.54579,0.16609 0.40338,-0.19963 0.43068,-0.20284 0.47727,-0.056 0.0443,0.1397 0.15325,0.15571 1.05971,0.15571 h 1.0103 v -0.74789 c 0,-0.41134 0.0231,-0.77097 0.0513,-0.79918 0.0282,-0.0282 0.17278,0.10832 0.32126,0.30339 0.17816,0.23407 0.46733,0.45545 0.85034,0.65101 0.54406,0.27779 0.63125,0.29633 1.39325,0.29633 0.62677,0 0.87766,-0.0353 1.0959,-0.15441 0.15567,-0.0849 0.30564,-0.1318 0.33326,-0.10418 0.10855,0.10855 -0.12585,0.51779 -0.40574,0.70838 -0.26648,0.18146 -0.36596,0.19779 -1.02173,0.16773 -0.57896,-0.0265 -0.82466,-0.0813 -1.20975,-0.26972 -0.26577,-0.13003 -0.52939,-0.21759 -0.58582,-0.19456 -0.0564,0.023 -0.25171,0.33622 -0.43398,0.69599 -0.37786,0.74588 -0.36432,0.82704 0.18506,1.10869 0.19302,0.099 0.32713,0.20373 0.29803,0.23284 -0.0291,0.0291 -4.52452,0.0529 -9.9898,0.0529 -8.15692,0 -9.94457,-0.02 -9.9798,-0.11186 z m 23.89853,0.0579 c -0.03,-0.03 0.11091,-0.1595 0.31314,-0.28775 0.7952,-0.5043 1.15637,-1.25938 1.23375,-2.57933 0.03,-0.51223 0.0768,-0.87418 0.10404,-0.80433 0.0272,0.0699 0.11354,0.30691 0.19188,0.5268 0.18508,0.51952 0.81739,1.09868 1.37459,1.25906 0.63934,0.18401 1.47038,0.1376 1.97085,-0.11008 0.39892,-0.19743 0.42548,-0.20043 0.47211,-0.0535 0.0443,0.1396 0.153,0.15571 1.05066,0.15571 0.77546,0 1.01139,-0.0265 1.04628,-0.11739 0.0374,-0.0975 0.14304,-0.0894 0.62289,0.0478 0.76955,0.22 2.2438,0.24051 2.92172,0.0407 0.59063,-0.17411 1.14208,-0.58394 1.36397,-1.01368 l 0.16675,-0.32295 0.14787,0.32295 c 0.19915,0.43496 0.6381,0.83622 1.10019,1.00572 0.52618,0.19301 1.70065,0.18816 2.18885,-0.009 0.35066,-0.14165 0.36657,-0.16296 0.32282,-0.43252 -0.0529,-0.32591 -0.01,-0.34809 0.23422,-0.12054 0.31407,0.29288 1.02192,0.59097 1.62586,0.68467 1.10945,0.17214 2.27963,-0.15845 3.0057,-0.84915 0.20711,-0.19701 0.35323,-0.28241 0.37705,-0.22035 0.0214,0.0557 0.0284,0.72851 0.0155,1.49508 l -0.0234,1.39375 -10.8864,0.0215 c -5.98752,0.0118 -10.91096,-0.003 -10.94097,-0.0331 z m 9.24693,-3.50641 c -0.16707,-0.0396 -0.49728,-0.14826 -0.73379,-0.24149 -0.37328,-0.14713 -0.44349,-0.15326 -0.5321,-0.0465 -0.18347,0.22107 -0.25067,0.13054 -0.25067,-0.33768 0,-0.48341 0.0844,-0.63264 0.24708,-0.43668 0.17506,0.21094 0.88148,0.4526 1.74259,0.59612 0.94468,0.15745 1.24258,0.32003 0.85582,0.46708 -0.2699,0.10261 -0.89401,0.10221 -1.32893,-8.5e-4 z m 6.0401,-0.089 c -0.2464,-0.0911 -0.28716,-0.29733 -0.25774,-1.30365 l 0.0248,-0.84667 0.381,-0.0249 0.381,-0.025 0.006,0.91396 c 0.004,0.50267 0.0226,0.98651 0.0423,1.07518 0.0433,0.19423 -0.29208,0.31676 -0.57774,0.21109 z m 3.26057,-0.11907 c -0.41502,-0.23376 -0.64273,-0.90588 -0.49402,-1.45818 0.12793,-0.47508 0.42162,-0.71603 0.93259,-0.76513 0.39469,-0.0379 0.44416,-0.0206 0.71575,0.25102 0.71417,0.71416 0.38068,1.98086 -0.54429,2.06743 -0.24288,0.0227 -0.46121,-0.0113 -0.61003,-0.0951 z m -40.16195,-0.0735 c -0.0246,-0.0641 -0.0329,-0.30225 -0.0185,-0.52917 l 0.0262,-0.41258 1.56634,-0.0423 1.56633,-0.0423 v -0.84674 -0.84667 l -1.56633,-0.0423 -1.56634,-0.0423 v -0.42334 -0.42333 l 1.778,-0.0423 1.778,-0.0423 v -0.889 -0.889 l -2.921,-0.0423 -2.921,-0.0423 v -1.016 -1.016 h 22.86 22.86 l 0.0226,2.28473 c 0.0124,1.25661 0.003,2.33703 -0.022,2.40094 -0.0321,0.0837 -0.142,0.0282 -0.39343,-0.19896 -1.27059,-1.14791 -3.51028,-1.1495 -4.76154,-0.003 -0.18035,0.16519 -0.34008,0.30034 -0.35495,0.30034 -0.0149,0 -0.0387,-0.18097 -0.0529,-0.40217 l -0.0258,-0.40216 -0.59266,-0.0423 -0.59267,-0.0423 -0.0423,-0.67733 -0.0423,-0.67733 h -1.05833 -1.05833 l -0.0423,0.67733 -0.0423,0.67733 -0.29633,-0.008 c -0.16299,-0.004 -0.65829,-0.0749 -1.10067,-0.15714 -1.33232,-0.24779 -2.58973,-0.0312 -3.26608,0.56266 -0.31423,0.2759 -0.34941,0.25162 -0.39249,-0.27098 l -0.0244,-0.29634 -0.96155,-0.024 c -0.63646,-0.0159 -1.00142,0.009 -1.0795,0.0739 -0.0928,0.077 -0.11795,0.42137 -0.11795,1.61425 0,1.76762 -0.0659,2.03363 -0.55455,2.23779 -0.2479,0.10358 -0.36358,0.10933 -0.6039,0.03 -0.47317,-0.15616 -0.53488,-0.41294 -0.53488,-2.22548 0,-1.24788 -0.0241,-1.57871 -0.12101,-1.65911 -0.0843,-0.0699 -0.41197,-0.0884 -1.0795,-0.0608 -1.17865,0.0488 -0.97264,0.0488 -1.9656,4e-5 -0.99396,-0.0488 -1.23656,-0.004 -1.23656,0.2267 0,0.21017 0.0165,0.21233 -0.47451,-0.0621 -0.35858,-0.20041 -0.50344,-0.22958 -1.1325,-0.22804 -0.92043,0.002 -1.58771,0.27741 -2.1622,0.89159 -0.23011,0.24601 -0.40022,0.36943 -0.4225,0.30654 -0.0205,-0.0579 -0.0478,-0.33388 -0.0606,-0.61328 l -0.0233,-0.508 -0.96155,-0.024 c -0.63646,-0.0159 -1.00142,0.009 -1.0795,0.0739 -0.0928,0.077 -0.11795,0.42137 -0.11795,1.61425 0,1.76762 -0.0659,2.03363 -0.55454,2.23779 -0.24791,0.10358 -0.36359,0.10933 -0.60391,0.03 -0.47283,-0.15605 -0.53488,-0.41347 -0.53488,-2.21891 0,-1.09432 -0.03,-1.58209 -0.1016,-1.65372 -0.10656,-0.10656 -1.7121,-0.14757 -1.96581,-0.0502 -0.1164,0.0447 -0.13392,0.29062 -0.13392,1.8796 0,1.18233 -0.0291,1.79916 -0.0822,1.746 -0.0452,-0.0452 -0.56157,-1.16726 -1.14746,-2.49343 -0.58589,-1.32618 -1.12201,-2.49808 -1.19138,-2.60423 -0.12177,-0.18632 -0.16315,-0.19219 -1.19522,-0.16934 l -1.06909,0.0237 -1.04202,2.37067 c -0.57311,1.30387 -1.13774,2.57069 -1.25474,2.81517 l -0.21271,0.4445 h -1.73924 c -1.39888,0 -1.748,-0.0228 -1.78399,-0.11659 z m 19.4843,-0.26633 c -1.06159,-0.37173 -0.85671,-1.77347 0.27511,-1.88222 0.50183,-0.0482 0.8899,0.12665 1.07488,0.48437 0.44385,0.85831 -0.39886,1.7309 -1.34999,1.39785 z m 14.61424,-0.73006 c -0.28052,-0.34801 -0.71941,-0.54835 -1.54368,-0.70461 -1.34217,-0.25446 -1.55302,-0.35245 -1.1837,-0.5501 0.24641,-0.13188 1.02602,-0.1054 1.49494,0.0508 0.22859,0.0761 0.66327,0.16186 0.96596,0.1905 l 0.55033,0.0521 0.0255,0.54174 c 0.014,0.29795 -0.005,0.56985 -0.0423,0.60423 -0.0373,0.0344 -0.1575,-0.0487 -0.26705,-0.18461 z m -27.61382,-0.32577 c 0,-0.19937 0.62126,-1.61424 0.68126,-1.5515 0.0562,0.0587 0.67341,1.5342 0.67341,1.6097 0,0.0142 -0.3048,0.0259 -0.67733,0.0259 -0.39198,0 -0.67734,-0.0354 -0.67734,-0.0841 z"
           style="fill:#323232;stroke-width:0.08466667" />
      </g>
    </g>
  </g>
</svg>
