<?xml version="1.0" encoding="UTF-8" standalone="no"?>
<!-- Created with Inkscape (http://www.inkscape.org/) -->

<svg
   xmlns:dc="http://purl.org/dc/elements/1.1/"
   xmlns:cc="http://creativecommons.org/ns#"
   xmlns:rdf="http://www.w3.org/1999/02/22-rdf-syntax-ns#"
   xmlns:svg="http://www.w3.org/2000/svg"
   xmlns="http://www.w3.org/2000/svg"
   xmlns:sodipodi="http://sodipodi.sourceforge.net/DTD/sodipodi-0.dtd"
   xmlns:inkscape="http://www.inkscape.org/namespaces/inkscape"
   width="201"
   height="42"
   viewBox="0 0 53.18125 11.1125"
   version="1.1"
   id="svg4676"
   inkscape:version="0.92.2 (5c3e80d, 2017-08-06)"
   sodipodi:docname="logo.svg">
  <defs
     id="defs4670" />
  <sodipodi:namedview
     id="base"
     pagecolor="#ffffff"
     bordercolor="#666666"
     borderopacity="1.0"
     inkscape:pageopacity="0"
     inkscape:pageshadow="2"
     inkscape:zoom="2.8"
     inkscape:cx="110.64461"
     inkscape:cy="27.887248"
     inkscape:document-units="mm"
     inkscape:current-layer="layer1"
     showgrid="false"
     inkscape:window-width="1366"
     inkscape:window-height="712"
     inkscape:window-x="0"
     inkscape:window-y="28"
     inkscape:window-maximized="1"
     units="px"
     fit-margin-right="-0.1"
     inkscape:pagecheckerboard="false" />
  <metadata
     id="metadata4673">
    <rdf:RDF>
      <cc:Work
         rdf:about="">
        <dc:format>image/svg+xml</dc:format>
        <dc:type
           rdf:resource="http://purl.org/dc/dcmitype/StillImage" />
        <dc:title></dc:title>
      </cc:Work>
    </rdf:RDF>
  </metadata>
  <g
     inkscape:label="Camada 1"
     inkscape:groupmode="layer"
     id="layer1"
     transform="translate(0,-285.8875)">
    <path
       inkscape:connector-curvature="0"
       id="path4757"
       d="m 4.7364219,296.50988 c -0.4354866,-0.82081 -4.53469987,-10.17362 -4.53469987,-10.3464 0,-0.0896 2.24235387,-0.16279 4.98300897,-0.16279 h 4.98301 l -2.3605002,5.27221 c -1.2982758,2.89973 -2.4625853,5.37311 -2.5873558,5.49643 -0.1268261,0.12535 -0.340004,0.0109 -0.4834631,-0.25945 z m 1.6489714,-6.03643 c 0.6564463,-1.46332 1.193537,-2.71678 1.193537,-2.78545 0,-0.0687 -1.1390264,-0.12488 -2.5311698,-0.12488 -1.9202203,0 -2.4990683,0.0786 -2.3981724,0.3255 0.6811088,1.66696 2.4014461,5.38458 2.4633949,5.32336 0.043378,-0.0429 0.615965,-1.2752 1.2724103,-2.73853 z m 19.6892507,3.54767 c -0.173889,-0.17188 -0.316163,-0.46896 -0.316163,-0.66017 0,-0.26307 -0.124052,-0.28207 -0.509628,-0.0781 -1.471539,0.77837 -4.312099,-0.0861 -4.649565,-1.41498 -0.540083,-2.12682 1.987833,-3.68651 4.465803,-2.75536 0.45563,0.17122 0.688737,0.15701 0.757246,-0.0462 0.205771,-0.61014 0.633604,0.0706 0.520986,0.82889 -0.108098,0.72794 -0.584842,1.15101 -0.584842,0.51898 0,-0.15053 -0.42725,-0.45012 -0.949447,-0.66578 -1.057636,-0.43676 -2.326891,-0.28876 -3.068496,0.3578 -0.65526,0.57128 -0.589474,1.76527 0.124492,2.25952 0.74056,0.51268 2.840357,0.52645 3.513752,0.0231 0.479269,-0.35827 0.449306,-0.38283 -0.476585,-0.39059 -0.714474,-0.006 -0.988024,-0.12038 -0.988024,-0.41317 0,-0.31947 0.257919,-0.38813 1.222646,-0.32551 l 1.222643,0.0793 0.04384,1.04161 c 0.02412,0.57289 0.138721,1.24668 0.254638,1.49733 0.241256,0.52161 -0.112571,0.60848 -0.583326,0.14321 z m -10.591561,-2.55195 c -0.790861,-1.55463 -1.192729,-2.08324 -1.583771,-2.08324 -0.288202,0 -0.524004,-0.11718 -0.524004,-0.26039 0,-0.14323 0.53353,-0.26041 1.185623,-0.26041 0.652092,0 1.185623,0.11718 1.185623,0.26041 0,0.14321 -0.120269,0.26039 -0.267264,0.26039 -0.146996,0 0.101249,0.72152 0.551653,1.60338 0.898513,1.75922 0.843316,1.76948 1.970139,-0.36646 0.525301,-0.99573 0.574612,-1.23692 0.252892,-1.23692 -0.219805,0 -0.399646,-0.11718 -0.399646,-0.26039 0,-0.14323 0.53353,-0.26041 1.185623,-0.26041 0.652092,0 1.185622,0.11718 1.185622,0.26041 0,0.14321 -0.213385,0.26039 -0.474189,0.26039 -0.331453,0 -0.783532,0.62709 -1.501849,2.08324 -0.565211,1.14576 -1.180437,2.08323 -1.36717,2.08323 -0.186733,0 -0.81641,-0.93747 -1.399282,-2.08323 z m 13.30532,1.83704 c -1.70726,-0.69063 -2.034134,-2.52107 -0.665958,-3.7293 0.803221,-0.70933 0.994146,-0.76033 2.4549,-0.6559 1.321385,0.0945 1.686542,0.23112 2.202883,0.82441 1.038599,1.19339 0.736095,2.68318 -0.693158,3.41367 -0.825775,0.42205 -2.440956,0.49409 -3.298667,0.14712 z m 3.234774,-0.94041 c 0.713966,-0.49425 0.779748,-1.68824 0.124493,-2.25952 -0.741607,-0.64655 -2.010861,-0.79455 -3.068504,-0.35779 -0.52219,0.21565 -0.949439,0.50566 -0.949439,0.64448 0,0.1388 -0.06371,0.4164 -0.14152,0.61689 -0.07783,0.20046 0.108614,0.67878 0.414329,1.06289 0.462254,0.58083 0.764579,0.69842 1.795462,0.69842 0.695525,0 1.496626,-0.17791 1.825179,-0.40537 z m 1.716297,0.86108 c 0.06639,-0.17902 0.254145,-0.29621 0.417168,-0.26039 0.1976,0.0434 0.296402,-0.54252 0.296402,-1.75773 0,-1.44669 -0.08155,-1.82283 -0.395211,-1.82283 -0.217363,0 -0.395202,-0.11718 -0.395202,-0.26039 0,-0.41773 4.124929,-0.3201 4.981938,0.11792 1.042348,0.53273 1.505992,1.72507 1.072766,2.75879 -0.488364,1.16527 -1.470508,1.55015 -3.955805,1.55015 -1.603007,0 -2.112395,-0.082 -2.022056,-0.32552 z m 5.094989,-1.10881 c 1.024961,-1.3854 -0.381991,-2.7257 -2.866458,-2.73069 -0.714303,-0.002 -0.724549,0.0218 -0.724549,1.64777 0,0.90708 0.05602,1.70459 0.12447,1.77223 0.06849,0.0676 0.795192,0.0501 1.614965,-0.0391 1.016572,-0.11058 1.605314,-0.31733 1.851572,-0.65019 z m 2.54179,0.93609 c -0.919379,-0.57079 -1.281243,-1.46229 -1.016589,-2.50449 0.362139,-1.42606 3.166199,-2.17789 4.871695,-1.30621 0.836255,0.4274 1.469442,1.6771 1.229038,2.42572 -0.532271,1.65751 -3.390873,2.43622 -5.084144,1.38498 z m 3.829452,-0.81393 c 1.919425,-1.76739 -1.702397,-3.84769 -3.704789,-2.12795 -0.655516,0.56298 -0.589429,1.7593 0.124492,2.25352 0.864358,0.59839 2.870485,0.52802 3.580297,-0.12557 z m 3.551656,0.98665 c 0.06639,-0.17902 0.254146,-0.29621 0.417168,-0.26039 0.173321,0.0381 0.293444,-0.28635 0.289277,-0.78122 -0.0078,-0.91987 -1.508942,-2.79934 -2.235933,-2.79934 -0.215412,0 -0.391654,-0.11718 -0.391654,-0.26039 0,-0.14323 0.533526,-0.26041 1.185622,-0.26041 0.65209,0 1.185624,0.11718 1.185624,0.26041 0,0.14321 -0.122116,0.26039 -0.271359,0.26039 -0.149252,0 -0.0023,0.35988 0.326842,0.7997 l 0.598211,0.79971 0.629511,-0.72333 c 0.380648,-0.43737 0.511832,-0.76209 0.331834,-0.8214 -0.719059,-0.23689 -0.196631,-0.57548 0.887935,-0.57548 0.652096,0 1.185624,0.11718 1.185624,0.26041 0,0.14321 -0.207483,0.26251 -0.461076,0.26509 -0.718207,0.008 -2.173636,1.91042 -2.173636,2.84222 0,0.45664 0.12695,0.77085 0.296403,0.73364 0.163021,-0.0358 0.35075,0.0814 0.417166,0.26039 0.08568,0.23096 -0.236392,0.32552 -1.108779,0.32552 -0.872387,0 -1.194458,-0.0945 -1.10878,-0.32552 z"
       style="fill:#fbe4da;stroke-width:0.26193306" />
    <path
       inkscape:connector-curvature="0"
       id="path4755"
       d="m 4.576319,296.13743 c -0.2089922,-0.49083 -1.2787738,-2.93189 -2.3772918,-5.42459 -1.0985178,-2.49269 -1.99730517,-4.57265 -1.99730517,-4.62216 0,-0.0495 2.19340227,-0.0901 4.87422627,-0.0901 2.6808258,0 4.8747738,0.0879 4.8754408,0.1953 0.00178,0.29327 -4.5109492,10.31348 -4.770486,10.59244 -0.1308754,0.14068 -0.383161,-0.13099 -0.6045841,-0.65101 z m 1.9077344,-5.74084 c 0.6021822,-1.37763 1.0948769,-2.57874 1.0948769,-2.66913 0,-0.0904 -1.1263418,-0.16434 -2.502982,-0.16434 -1.3766391,0 -2.5029802,0.0689 -2.5029802,0.15311 0,0.0842 0.427362,1.10955 0.9496926,2.27852 0.5223314,1.16898 1.0602677,2.40816 1.1954134,2.75373 0.3205886,0.81974 0.4618427,0.63164 1.7659793,-2.35189 z m 19.5905906,3.62453 c -0.173889,-0.17188 -0.316163,-0.44854 -0.316163,-0.61483 0,-0.22269 -0.263123,-0.23294 -0.998649,-0.0389 -2.66003,0.70173 -5.070907,-1.23605 -3.999505,-3.21466 0.601102,-1.11009 3.001214,-1.66539 4.278334,-0.98985 0.422328,0.22339 0.587972,0.22339 0.663313,0 0.214525,-0.63608 0.583445,-0.25301 0.583445,0.60581 v 0.90357 l -0.98802,-0.66623 c -1.128839,-0.76121 -2.628902,-0.74018 -3.511446,0.0493 -0.661483,0.59165 -0.646233,1.72902 0.03129,2.33506 0.908602,0.81268 3.941212,0.52828 3.941212,-0.36964 0,-0.0912 -0.374043,-0.16479 -0.831213,-0.1634 -0.457161,0.002 -0.882006,-0.14397 -0.944106,-0.323 -0.07952,-0.22929 0.244055,-0.32551 1.094678,-0.32551 h 1.20758 v 1.15645 c 0,0.63605 0.118563,1.22887 0.263474,1.31739 0.314447,0.19207 0.351595,0.651 0.05273,0.651 -0.115925,0 -0.35305,-0.14061 -0.52694,-0.31248 z m -10.57554,-2.55195 c -0.603923,-1.1473 -1.268147,-2.08324 -1.478454,-2.08324 -0.210028,0 -0.38187,-0.11718 -0.38187,-0.26039 0,-0.14323 0.474249,-0.26041 1.053887,-0.26041 0.986058,0 1.437405,0.35105 0.744739,0.57925 -0.200882,0.0662 0.0052,0.66697 0.588417,1.71551 l 0.897563,1.61365 0.835116,-1.6287 c 0.639418,-1.24704 0.748493,-1.64844 0.465471,-1.7129 -0.832145,-0.18953 -0.289024,-0.56681 0.815978,-0.56681 0.652092,0 1.185622,0.11718 1.185622,0.26041 0,0.14321 -0.207483,0.26051 -0.461076,0.26065 -0.305756,1.7e-4 -0.844317,0.70194 -1.598766,2.08322 -0.625728,1.14564 -1.234969,2.08299 -1.353866,2.08299 -0.118898,0 -0.70964,-0.93747 -1.312761,-2.08323 z m 13.426449,1.80652 c -1.142081,-0.4747 -1.586246,-1.05206 -1.586246,-2.06189 0,-1.37718 0.911274,-2.14592 2.698559,-2.27648 1.061713,-0.0775 1.583596,0.0218 2.234468,0.42604 1.391634,0.86398 1.494347,2.72678 0.19669,3.56714 -0.814492,0.52746 -2.67006,0.70822 -3.543471,0.34519 z m 3.222117,-0.95751 c 0.605284,-0.53683 0.588196,-1.6962 -0.03315,-2.252 -1.635852,-1.46319 -4.714745,-0.19958 -4.109096,1.68641 0.383022,1.19275 3.02795,1.55389 4.142286,0.56559 z m 1.514961,1.03009 c 0,-0.14077 0.237124,-0.31724 0.52694,-0.39214 0.459737,-0.11883 0.526946,-0.35519 0.526946,-1.85319 0,-1.5434 -0.05324,-1.71701 -0.526946,-1.71701 -0.289816,0 -0.52694,-0.11718 -0.52694,-0.26039 0,-0.43428 3.890486,-0.31373 4.881936,0.15126 1.538837,0.72172 1.723578,2.43665 0.390452,3.62457 -0.470999,0.41972 -1.039495,0.53848 -2.928424,0.61183 -1.422218,0.0552 -2.343964,-0.01 -2.343964,-0.16493 z m 4.907553,-0.96533 c 0.424539,-0.27493 0.625351,-0.65198 0.625351,-1.17418 0,-0.99298 -0.911582,-1.60033 -2.649693,-1.76539 l -1.302386,-0.12369 v 1.89222 1.89223 l 1.350685,-0.15811 c 0.742876,-0.0869 1.632096,-0.34035 1.976043,-0.56308 z m 3.153278,0.7717 c -0.968804,-0.49935 -1.454974,-1.1289 -1.465661,-1.8979 -0.03853,-2.77373 5.042068,-3.30383 6.075184,-0.63389 0.755438,1.95231 -2.386086,3.6778 -4.609523,2.53179 z m 2.872329,-0.4965 c 2.415834,-0.99764 0.542653,-3.9084 -2.018082,-3.13593 -2.000219,0.60337 -2.060184,2.84741 -0.08877,3.32208 0.914396,0.22017 1.179699,0.19673 2.10686,-0.18615 z m 4.084728,0.63385 c 0,-0.14323 0.177839,-0.26041 0.395209,-0.26041 0.265154,0 0.395202,-0.26209 0.395202,-0.79649 0,-0.95167 -1.43309,-2.84916 -2.151866,-2.84916 -0.265563,0 -0.482845,-0.11718 -0.482845,-0.26039 0,-0.14323 0.533526,-0.26041 1.185622,-0.26041 1.084568,0 1.606996,0.33859 0.887938,0.57548 -0.180103,0.0593 -0.04974,0.38294 0.33001,0.81932 l 0.627704,0.72122 0.773161,-0.7976 c 0.600944,-0.61993 0.674151,-0.79762 0.328664,-0.79762 -0.244472,0 -0.4445,-0.11718 -0.4445,-0.26039 0,-0.14323 0.533533,-0.26041 1.185621,-0.26041 0.652096,0 1.185624,0.11718 1.185624,0.26041 0,0.14321 -0.227161,0.26039 -0.504803,0.26039 -0.735706,0 -2.129909,1.85694 -2.129909,2.83681 0,0.54537 0.128735,0.80884 0.395203,0.80884 0.217363,0 0.39521,0.11718 0.39521,0.26041 0,0.14322 -0.533534,0.26041 -1.185623,0.26041 -0.652097,0 -1.185622,-0.11719 -1.185622,-0.26041 z"
       style="fill:#fad8c9;stroke-width:0.26193306" />
    <path
       inkscape:connector-curvature="0"
       id="path4753"
       d="m 4.7156967,296.39413 c -0.1364538,-0.34557 -1.1587424,-2.679 -2.2717519,-5.18537 -1.1130109,-2.50638 -2.0855174,-4.70354 -2.16112763,-4.88257 -0.10710783,-0.25361 0.94533983,-0.3255 4.76494333,-0.3255 2.6963282,0 4.9024155,0.0626 4.9024155,0.13909 0,0.24668 -4.5520171,10.39891 -4.7729401,10.64496 -0.1201722,0.13382 -0.3218537,-0.0368 -0.4615392,-0.39061 z m 1.7532424,-5.8862 c 0.7241075,-1.60285 1.2503202,-2.97972 1.1693625,-3.05974 -0.080957,-0.08 -1.2537766,-0.14548 -2.6062648,-0.14548 -1.7572523,0 -2.4590687,0.0906 -2.4590687,0.3172 0,0.33422 2.424546,5.97066 2.5224987,5.86415 0.031303,-0.034 0.6493648,-1.37329 1.3734723,-2.97613 z m 19.6057049,3.51319 c -0.173889,-0.17188 -0.316163,-0.47735 -0.316163,-0.67887 0,-0.24533 -0.15235,-0.30569 -0.461082,-0.18267 -1.719456,0.68514 -3.768669,0.14164 -4.520616,-1.19897 -1.059397,-1.88876 1.973136,-3.88059 4.191278,-2.75294 0.556924,0.28311 0.708266,0.27247 0.979641,-0.069 0.270509,-0.34033 0.322281,-0.27077 0.329338,0.44251 0.0093,0.94645 -0.139959,1.03001 -0.794475,0.44458 -1.141588,-1.02109 -3.600805,-0.67058 -4.184917,0.59648 -0.677295,1.46918 1.377794,2.78052 3.413063,2.17784 1.349608,-0.39964 1.418587,-1.07056 0.110064,-1.07056 -0.558039,0 -0.871768,-0.10544 -0.774864,-0.26041 0.08957,-0.14322 0.630088,-0.26041 1.201172,-0.26041 h 1.038336 v 1.15646 c 0,0.63605 0.118564,1.22887 0.263474,1.31738 0.314446,0.19207 0.351595,0.65101 0.05273,0.65101 -0.115925,0 -0.353049,-0.14062 -0.526939,-0.31249 z M 15.537252,291.4655 c -0.6223,-1.14376 -1.304034,-2.07957 -1.514963,-2.07957 -0.210929,0 -0.383509,-0.11718 -0.383509,-0.26039 0,-0.14323 0.474249,-0.26041 1.053887,-0.26041 0.976726,0 1.439367,0.3504 0.758708,0.57465 -0.184794,0.0609 0.02458,0.72331 0.559877,1.77138 l 0.855057,1.67413 0.863655,-1.68458 c 0.659182,-1.28575 0.776139,-1.7045 0.494009,-1.76877 -0.832145,-0.18953 -0.289024,-0.56681 0.815978,-0.56681 0.652092,0 1.185622,0.11718 1.185622,0.26041 0,0.14321 -0.235801,0.26039 -0.524002,0.26039 -0.391042,0 -0.792909,0.52861 -1.583772,2.08324 -0.582872,1.14576 -1.147365,2.08157 -1.254431,2.07956 -0.107064,-0.002 -0.703817,-0.93946 -1.326116,-2.08323 z m 13.122238,1.63078 c -2.371157,-1.17433 -1.231907,-4.22804 1.578009,-4.22977 2.170903,-0.002 3.582679,1.4902 2.916065,3.0808 -0.611789,1.4598 -2.75836,2.00859 -4.494074,1.14897 z m 3.629477,-0.99284 c 1.283653,-1.46037 -0.362515,-3.03977 -2.713878,-2.60379 -1.868744,0.3465 -2.248942,2.41823 -0.579898,3.15994 1.166651,0.51843 2.555336,0.28397 3.293776,-0.55615 z m 1.524684,1.21939 c -0.111751,-0.17871 0.02748,-0.29125 0.36037,-0.29125 0.496012,0 0.542496,-0.15618 0.542496,-1.82282 0,-1.70446 -0.03764,-1.82283 -0.579637,-1.82283 -0.424711,0 -0.501473,-0.0772 -0.287194,-0.28904 0.183001,-0.18086 1.08264,-0.25357 2.403824,-0.19426 2.564313,0.11508 3.468972,0.71649 3.468972,2.30613 0,1.59073 -0.864934,2.15313 -3.523499,2.29103 -1.457118,0.0756 -2.26488,0.0156 -2.385332,-0.17696 z m 4.708225,-0.90861 c 0.459141,-0.29733 0.673659,-0.67026 0.673659,-1.1711 0,-1.07413 -0.82163,-1.6651 -2.507067,-1.80324 l -1.445012,-0.11844 v 1.88821 1.8882 l 1.302386,-0.12369 c 0.716309,-0.068 1.605524,-0.32 1.976034,-0.55994 z m 3.313719,0.68206 c -1.297151,-0.64419 -1.778832,-1.58036 -1.345338,-2.61473 0.654464,-1.5616 3.170718,-2.09836 4.79203,-1.0222 1.548495,1.02782 1.31816,3.00055 -0.434852,3.72448 -1.175601,0.48548 -1.900396,0.46441 -3.01184,-0.0876 z m 2.874002,-0.44568 c 1.738582,-0.88857 1.316239,-2.76083 -0.713302,-3.16201 -1.659296,-0.32799 -2.956454,0.4172 -2.956454,1.69841 0,1.5051 2.015673,2.30901 3.669756,1.4636 z m 3.970922,0.64139 c 0,-0.14323 0.177839,-0.26041 0.395209,-0.26041 0.266469,0 0.395202,-0.26347 0.395202,-0.80884 0,-0.97987 -1.394202,-2.83681 -2.129908,-2.83681 -0.277641,0 -0.504803,-0.11718 -0.504803,-0.26039 0,-0.14323 0.533526,-0.26041 1.185622,-0.26041 1.115764,0 1.586115,0.32918 0.856279,0.59929 -0.223868,0.0828 -0.114753,0.3417 0.340734,0.80825 l 0.670081,0.68637 0.762443,-0.78654 c 0.419341,-0.43261 0.621699,-0.78657 0.449678,-0.78657 -0.172022,0 -0.312765,-0.11718 -0.312765,-0.26039 0,-0.14323 0.474248,-0.26041 1.053885,-0.26041 0.579637,0 1.053887,0.11718 1.053887,0.26041 0,0.14321 -0.228491,0.26039 -0.50776,0.26039 -0.772766,0 -2.126952,1.77861 -2.126952,2.79357 0,0.59814 0.122417,0.85208 0.410751,0.85208 0.225923,0 0.337487,0.11718 0.247925,0.26041 -0.08957,0.14322 -0.630087,0.26041 -1.201172,0.26041 -0.571086,0 -1.038336,-0.11719 -1.038336,-0.26041 z"
       style="fill:#f9c7b1;stroke-width:0.26193306" />
    <path
       inkscape:connector-curvature="0"
       id="path4751"
       d="m 2.6480929,291.5559 -2.38240022,-5.42501 4.74832782,-0.0711 c 2.611581,-0.0391 4.7908356,-0.0291 4.8427879,0.0222 0.085487,0.0845 -4.0575264,9.54116 -4.5989549,10.49737 -0.1645114,0.29054 -0.8859284,-1.09811 -2.6097606,-5.02348 z m 3.8849155,-1.12041 c 0.7201667,-1.61016 1.3093942,-2.97374 1.3093942,-3.03017 0,-0.0563 -1.2547839,-0.10261 -2.7884095,-0.10261 -1.533625,0 -2.7488887,0.0968 -2.7005855,0.21519 0.8058135,1.97447 2.689822,6.02343 2.7671746,5.94697 0.056668,-0.0561 0.6922594,-1.41923 1.4124262,-3.02938 z m 19.3537136,3.10602 c -0.119234,-0.37128 -0.32331,-0.48913 -0.676436,-0.39061 -0.278134,0.0776 -0.736991,0.20575 -1.019688,0.28478 -0.84208,0.23539 -2.580461,-0.36771 -3.160482,-1.0965 -0.72502,-0.91098 -0.681753,-1.4874 0.183474,-2.44442 0.900663,-0.99618 2.506687,-1.29328 3.730153,-0.69005 0.448102,0.22095 0.814738,0.29351 0.814738,0.16128 0,-0.13226 0.118562,-0.24045 0.263467,-0.24045 0.144909,0 0.263471,0.29295 0.263471,0.651 0,0.78677 -0.117442,0.80234 -0.981994,0.13021 -1.135972,-0.88316 -3.427528,-0.58067 -4.030004,0.53196 -0.226638,0.41854 -0.226194,0.73672 0.0015,1.2807 0.503264,1.20085 2.319691,1.68208 3.812194,1.00997 0.982346,-0.44237 0.831528,-0.95178 -0.316948,-1.07052 -0.905188,-0.0935 -0.883103,-0.10582 0.263474,-0.14591 l 1.251487,-0.0438 v 0.98953 c 0,0.54424 0.142275,1.13015 0.316163,1.30201 0.245908,0.24305 0.220583,0.31249 -0.113976,0.31249 -0.23658,0 -0.506983,-0.23926 -0.600884,-0.53169 z m -9.286689,-0.31463 c -0.145712,-0.17902 -0.6429,-1.07103 -1.104863,-1.98224 -0.490688,-0.96786 -1.051254,-1.71135 -1.348161,-1.78809 -0.884536,-0.22862 -0.549807,-0.59142 0.545658,-0.59142 0.579638,0 1.053887,0.11718 1.053887,0.26041 0,0.14321 -0.164165,0.26039 -0.364811,0.26039 -0.254166,0 -0.08339,0.52379 0.563057,1.72704 l 0.927867,1.72704 0.882741,-1.53173 c 0.946345,-1.6421 1.037583,-1.92235 0.625864,-1.92235 -0.144911,0 -0.263473,-0.11718 -0.263473,-0.26039 0,-0.14323 0.414969,-0.26041 0.922152,-0.26041 0.507182,0 0.922151,0.11718 0.922151,0.26041 0,0.14321 -0.17652,0.26039 -0.392266,0.26039 -0.226374,0 -0.840458,0.88103 -1.452037,2.08324 -0.582872,1.14576 -1.103208,2.08323 -1.156301,2.08323 -0.05309,0 -0.215754,-0.14649 -0.361465,-0.32552 z m 12.671223,0.15579 c -1.497769,-0.31807 -2.338228,-1.97865 -1.647266,-3.25469 0.330003,-0.60944 1.759518,-1.26285 2.762827,-1.26285 1.868393,0 3.414794,1.65411 2.797749,2.9926 -0.535319,1.16122 -2.331007,1.86097 -3.91331,1.52494 z m 2.556337,-0.74643 c 1.369259,-0.69982 1.267096,-2.46077 -0.174173,-3.00237 -1.787553,-0.67171 -3.787167,0.1485 -3.787167,1.55343 0,1.54255 2.202182,2.34805 3.96134,1.44894 z m 2.098512,0.65575 c 0,-0.14323 0.177838,-0.26041 0.395202,-0.26041 0.313662,0 0.39521,-0.37614 0.39521,-1.82282 0,-1.44669 -0.08155,-1.82283 -0.39521,-1.82283 -0.217364,0 -0.395202,-0.12959 -0.395202,-0.28797 0,-0.19404 0.681686,-0.25739 2.089982,-0.19418 2.499867,0.11221 3.524029,0.67869 3.658612,2.02365 0.176472,1.7637 -1.206349,2.62061 -4.233634,2.62351 -0.835306,7.3e-4 -1.51496,-0.11538 -1.51496,-0.25895 z m 4.738405,-0.90776 c 1.379998,-1.23434 0.121453,-2.9983 -2.139221,-2.9983 h -1.281833 v 1.85508 1.85506 l 1.445012,-0.11843 c 0.890004,-0.073 1.648976,-0.30087 1.976042,-0.59341 z m 3.511655,0.88916 c -0.934107,-0.27611 -1.926743,-1.35576 -1.926743,-2.09564 0,-0.26487 0.329898,-0.8465 0.733092,-1.2925 1.888079,-2.08851 5.875662,-0.61308 5.22869,1.93465 -0.315178,1.24116 -2.315599,1.96174 -4.035039,1.45349 z m 3.089908,-0.90239 c 1.224407,-1.09516 0.102602,-2.98507 -1.771869,-2.98507 -1.168572,0 -2.348512,0.61342 -2.534881,1.3178 -0.192679,0.72822 0.259486,1.68109 0.966856,2.03755 0.787098,0.39662 2.722371,0.18208 3.339894,-0.37028 z m 3.564695,0.9506 c -0.07938,-0.12694 0.09147,-0.29175 0.379655,-0.36624 0.34042,-0.088 0.523981,-0.3556 0.523981,-0.76394 0,-0.71063 -1.687565,-2.80549 -2.26004,-2.80549 -0.20607,0 -0.37468,-0.11718 -0.37468,-0.26039 0,-0.14323 0.474251,-0.26041 1.053887,-0.26041 0.579645,0 1.053894,0.11718 1.053894,0.26041 0,0.14321 -0.205211,0.26039 -0.456011,0.26039 -0.35323,0 -0.268963,0.18488 0.373888,0.82024 l 0.829891,0.82022 0.660573,-0.75513 c 0.363313,-0.41531 0.550748,-0.79418 0.416524,-0.84193 -0.62674,-0.22292 -0.136874,-0.5642 0.809846,-0.5642 0.579637,0 1.053887,0.11718 1.053887,0.26041 0,0.14321 -0.227879,0.26039 -0.506409,0.26039 -0.67533,0 -2.391776,2.01336 -2.391776,2.80549 0,0.40834 0.183561,0.67596 0.523981,0.76394 0.789113,0.20396 0.357405,0.59704 -0.655718,0.59704 -0.490074,0 -0.955998,-0.10386 -1.035373,-0.2308 z"
       style="fill:#f7b092;stroke-width:0.26193306" />
    <path
       inkscape:connector-curvature="0"
       id="path4749"
       d="m 2.6833072,291.52227 -2.3729993,-5.39138 2.4623737,-0.0747 c 1.3543052,-0.0412 3.5145963,-0.0412 4.8006449,0 l 2.3382733,0.0747 -2.3758318,5.33828 c -1.3067073,2.93604 -2.3991482,5.36217 -2.4276464,5.39137 -0.028504,0.0292 -1.1196643,-2.37302 -2.4248144,-5.33827 z m 3.9427138,-1.14521 c 0.66901,-1.53161 1.2163816,-2.84988 1.2163816,-2.92953 0,-0.0796 -1.2449044,-0.14482 -2.7664543,-0.14482 -1.521548,0 -2.7664523,0.0481 -2.7664523,0.10713 0,0.0589 0.4282984,1.08425 0.9517751,2.27852 0.5234769,1.19427 1.1243982,2.56767 1.3353813,3.05199 0.2109832,0.48431 0.4802166,0.77727 0.5982966,0.65101 0.1180798,-0.12628 0.762062,-1.4827 1.431072,-3.0143 z m 19.395927,3.1907 c 0,-0.58624 -0.414077,-0.92734 -0.656019,-0.54042 -0.09102,0.14555 -0.86326,0.26465 -1.71608,0.26465 -1.246162,0 -1.691411,-0.11973 -2.267873,-0.6098 -2.112022,-1.79553 0.608464,-4.54064 3.418671,-3.44961 0.832146,0.32307 1.104671,0.3418 1.268299,0.0871 0.131571,-0.20478 0.209894,-0.0604 0.21244,0.39175 0.0045,0.85455 -0.102445,0.87596 -0.977961,0.1953 -0.988759,-0.76871 -2.802887,-0.70973 -3.640731,0.11836 -0.768806,0.75984 -0.819957,1.4353 -0.168878,2.22998 0.658235,0.80342 2.909551,1.03146 3.893331,0.39437 0.782847,-0.50696 0.60412,-0.82852 -0.550824,-0.99104 -0.64379,-0.0905 -0.587419,-0.11846 0.303916,-0.15024 l 1.094328,-0.039 0.0913,1.30217 c 0.05019,0.71621 0.0023,1.30211 -0.106307,1.30203 -0.108683,-9e-5 -0.197608,-0.22761 -0.197608,-0.50561 z m -10.447151,-2.22769 c -0.67606,-1.30155 -1.16749,-1.95227 -1.474941,-1.95301 -0.253591,-6.2e-4 -0.461076,-0.11831 -0.461076,-0.26152 0,-0.14323 0.474249,-0.26041 1.053887,-0.26041 0.579638,0 1.053887,0.11718 1.053887,0.26041 0,0.14321 -0.179841,0.26039 -0.399645,0.26039 -0.323186,0 -0.276799,0.23666 0.242455,1.23692 1.281064,2.4678 1.301157,2.47297 2.266083,0.58371 0.533971,-1.04546 0.742374,-1.70588 0.557531,-1.76678 -0.64096,-0.21116 -0.244378,-0.57465 0.626973,-0.57465 0.507182,0 0.922151,0.11718 0.922151,0.26041 0,0.14321 -0.169539,0.26039 -0.376753,0.26039 -0.207213,0 -0.867611,0.87887 -1.46755,1.95303 -0.599938,1.07417 -1.189423,1.95303 -1.309967,1.95303 -0.120545,0 -0.67541,-0.87836 -1.233035,-1.95192 z m 12.534659,1.19073 c -0.946891,-0.93586 -0.982434,-1.82241 -0.107725,-2.68693 0.814029,-0.80455 1.993729,-1.06323 3.283493,-0.71999 1.96953,0.52417 2.606495,2.38045 1.221001,3.55831 -0.564872,0.48023 -1.026372,0.6098 -2.17195,0.6098 -1.256499,0 -1.559591,-0.1037 -2.224819,-0.76119 z m 4.11605,-0.13838 c 0.820616,-0.81106 0.820616,-1.55626 0,-2.36732 -1.356449,-1.34064 -4.359253,-0.52531 -4.359253,1.18366 0,1.70896 3.002804,2.52431 4.359253,1.18366 z m 2.029936,0.72006 c 0.383142,-0.099 0.461075,-0.42395 0.461075,-1.92282 0,-1.4297 -0.08196,-1.80373 -0.39521,-1.80373 -0.217364,0 -0.395202,-0.11718 -0.395202,-0.26039 0,-0.32518 2.411044,-0.32937 3.820334,-0.007 1.929028,0.44175 2.614419,2.2638 1.329339,3.53393 -0.594439,0.58751 -0.833999,0.63673 -2.964058,0.60896 -1.27455,-0.0166 -2.10987,-0.0838 -1.856278,-0.14929 z m 3.976494,-0.37002 c 0.885366,-0.3987 1.297762,-1.35587 0.928901,-2.15599 -0.370505,-0.80371 -1.277591,-1.20054 -2.744148,-1.20054 h -1.173233 v 1.82283 1.82282 h 1.173233 c 0.645269,0 1.462136,-0.1301 1.815247,-0.28912 z m 2.975171,0.01 c -0.530787,-0.41265 -0.694213,-0.77096 -0.694213,-1.52206 0,-1.14801 0.54709,-1.74795 1.940785,-2.12829 2.856205,-0.77945 5.097723,1.80875 3.044963,3.5159 -1.067082,0.88743 -3.235603,0.95538 -4.291535,0.13445 z m 3.881008,-0.2604 c 0.685368,-0.53282 0.919558,-1.58863 0.492576,-2.22064 -0.717565,-1.06213 -3.18425,-1.20816 -4.157619,-0.24612 -0.70557,0.69736 -0.797635,1.19957 -0.366008,1.99667 0.588129,1.08613 2.892927,1.35492 4.031051,0.47009 z m 4.185215,0.62061 c 0.811974,-0.20972 0.571809,-1.52067 -0.491733,-2.68418 -0.524049,-0.5733 -1.116861,-1.04236 -1.317359,-1.04236 -0.2005,0 -0.364554,-0.11718 -0.364554,-0.2604 0,-0.14323 0.414974,-0.26041 0.922157,-0.26041 0.507179,0 0.92215,0.11718 0.92215,0.26041 0,0.14322 -0.145927,0.2604 -0.324273,0.2604 -0.178348,0 0.06595,0.38085 0.542958,0.84631 l 0.867233,0.8463 0.6397,-0.78121 c 0.351833,-0.42965 0.522473,-0.82026 0.37919,-0.86801 -0.61052,-0.20342 -0.187437,-0.5642 0.66164,-0.5642 0.507187,0 0.922157,0.11718 0.922157,0.26041 0,0.14322 -0.153783,0.2604 -0.341735,0.2604 -0.18796,0 -0.78077,0.44437 -1.317359,0.98748 -1.097181,1.11054 -1.361992,2.52018 -0.51455,2.73906 0.253594,0.0655 -0.01314,0.11909 -0.592811,0.11909 -0.579636,0 -0.846403,-0.0536 -0.592811,-0.11909 z"
       style="fill:#f4946a;stroke-width:0.26193306" />
    <path
       inkscape:connector-curvature="0"
       id="path4747"
       d="m 2.7183318,291.4557 c -1.2648892,-2.87942 -2.24697336,-5.28751 -2.18241121,-5.35131 0.0645651,-0.0639 2.18941051,-0.0839 4.72188301,-0.0446 l 4.6044966,0.0712 -2.3364824,5.19544 c -1.2850659,2.85749 -2.3750052,5.2335 -2.4220864,5.28004 -0.047085,0.0465 -1.1205116,-2.27127 -2.3853996,-5.15068 z m 3.927109,-1.00252 c 0.6583286,-1.48775 1.1969618,-2.80522 1.1969618,-2.92773 0,-0.12251 -1.2449044,-0.22274 -2.7664543,-0.22274 -1.521548,0 -2.7664523,0.10097 -2.7664523,0.22439 0,0.12341 0.3402145,0.97297 0.7560314,1.88791 0.4158168,0.91496 1.0112794,2.24097 1.3232477,2.94672 0.3516889,0.7956 0.6607822,1.1907 0.8134609,1.03981 0.1354341,-0.13387 0.7848768,-1.46063 1.4432048,-2.94836 z m 19.5521572,3.44642 c -0.0966,-0.0955 -0.17565,-0.40097 -0.17565,-0.67888 0,-0.38387 -0.110773,-0.45716 -0.461076,-0.30506 -0.708289,0.30756 -2.366825,0.45022 -3.105055,0.26709 -0.981852,-0.24356 -1.7033,-1.08468 -1.7033,-1.98583 0,-1.03353 1.035938,-2.07921 2.029928,-2.04901 l 0.736527,0.0223 -0.752863,0.22298 c -2.774997,0.82191 -2.108113,3.63829 0.861507,3.63829 1.160275,0 2.394332,-0.53636 2.394332,-1.04065 0,-0.12646 -0.444608,-0.27589 -0.988016,-0.33207 l -0.988021,-0.10214 1.094328,-0.0438 1.094328,-0.0438 0.0913,1.30218 c 0.05019,0.71621 0.08141,1.30211 0.06931,1.30203 -0.01209,-1e-4 -0.100996,-0.0783 -0.197601,-0.17378 z M 15.56664,291.20436 c -0.861449,-1.62495 -1.010052,-2.07882 -0.680636,-2.07882 0.231787,0 0.348016,0.0725 0.258287,0.16124 -0.08974,0.0886 0.264602,0.99683 0.787401,2.01812 l 0.950545,1.85688 0.94712,-2.00668 c 0.555731,-1.17745 1.110439,-2.00977 1.34233,-2.01415 0.260128,-0.006 0.294115,0.0579 0.09944,0.18387 -0.162674,0.10523 -0.727336,1.04088 -1.254803,2.07924 -0.527468,1.03836 -1.046464,1.88595 -1.153324,1.88352 -0.10686,-0.002 -0.690221,-0.93987 -1.296357,-2.08322 z m 13.184084,1.82942 c -0.689401,-0.27497 -1.411417,-1.24844 -1.411417,-1.90298 0,-0.77356 1.42719,-2.00931 2.285112,-1.97861 l 0.744817,0.0267 -0.813416,0.1922 c -1.111251,0.26256 -1.418386,0.48176 -1.699694,1.21303 -0.735863,1.91293 2.485954,3.33513 4.321881,1.9078 1.270591,-0.98781 0.590429,-2.86718 -1.150095,-3.17784 l -0.658676,-0.11757 0.689013,-0.0354 c 2.121006,-0.10917 2.895982,2.78339 1.004706,3.75001 -0.816112,0.41711 -2.424751,0.47673 -3.312231,0.12276 z m 5.524719,0.0749 c 0.421582,-0.1077 0.470461,-0.36171 0.395209,-2.05363 -0.05205,-1.17013 0.01792,-1.93073 0.177602,-1.93073 0.160289,0 0.229081,0.77753 0.175667,1.98535 l -0.08781,1.98535 1.769711,-0.11138 c 1.450382,-0.0912 1.858437,-0.21966 2.261444,-0.71157 0.270456,-0.33011 0.491741,-0.8269 0.491741,-1.104 0,-0.78916 -1.17519,-1.77731 -2.161665,-1.8176 -0.661693,-0.027 -0.72127,-0.0631 -0.250435,-0.15155 1.302506,-0.24474 2.675573,0.87007 2.675573,2.17232 0,0.21911 -0.346568,0.74092 -0.770151,1.15956 -0.734413,0.72587 -0.87193,0.75979 -2.964057,0.73098 -1.206647,-0.0166 -1.977425,-0.0854 -1.712831,-0.1531 z m 7.423075,-0.11739 c -0.806,-0.43571 -1.185624,-1.02618 -1.185624,-1.84413 0,-0.98274 1.061982,-2.02866 2.029929,-1.99924 l 0.736528,0.0223 -0.752862,0.22298 c -2.771841,0.82097 -2.107331,3.64661 0.854261,3.63252 2.919665,-0.0139 3.586542,-2.98964 0.814409,-3.63407 -0.861909,-0.20036 -0.871975,-0.21446 -0.170998,-0.23955 0.896301,-0.0321 2.285111,1.21785 2.285111,2.05658 0,0.30847 -0.346567,0.90339 -0.770151,1.32204 -0.642006,0.63454 -0.981741,0.75986 -2.0419,0.75327 -0.699468,-0.005 -1.508881,-0.13611 -1.798703,-0.29278 z m 7.574812,0.12119 c 0.863775,-0.2231 0.574557,-1.64576 -0.585523,-2.88023 -0.572018,-0.6087 -0.896584,-1.10421 -0.721261,-1.10116 0.175321,0.003 0.658809,0.48046 1.074409,1.06088 l 0.755654,1.05533 0.825179,-0.73538 0.825187,-0.73538 -0.724548,0.79546 c -0.854382,0.938 -1.000823,2.35003 -0.263475,2.54048 0.253594,0.0655 -0.01314,0.11909 -0.592811,0.11909 -0.579636,0 -0.846403,-0.0535 -0.592811,-0.11909 z m -23.60601,-3.06492 c -0.08114,-0.20899 -0.538433,-0.49137 -1.016207,-0.62751 -0.477766,-0.13614 -0.653396,-0.25812 -0.390274,-0.27103 0.263116,-0.0129 0.722801,0.1058 1.021526,0.26381 0.41701,0.22058 0.59559,0.20547 0.769059,-0.0651 0.157542,-0.24572 0.227147,-0.13562 0.229962,0.36373 0.0045,0.7632 -0.368928,0.9675 -0.614066,0.33612 z m 25.647917,-0.6698 c 0,-0.13872 0.17784,-0.25222 0.395202,-0.25222 0.217371,0 0.395211,0.0461 0.395211,0.10234 0,0.0563 -0.17784,0.16979 -0.395211,0.25223 -0.217362,0.0824 -0.395202,0.0364 -0.395202,-0.10235 z"
       style="fill:#f88350;stroke-width:0.26193306" />
    <path
       inkscape:connector-curvature="0"
       id="path4745"
       d="m 2.7526253,291.44601 c -1.1321634,-2.59074 -2.12267793,-4.87577 -2.20114411,-5.07787 -0.11948843,-0.30775 0.61094951,-0.36745 4.49627931,-0.36745 2.5514193,0 4.6389624,0.0879 4.6389851,0.19531 1.058e-4,0.50515 -4.3752758,9.96043 -4.6091359,9.96043 -0.146578,0 -1.1928201,-2.11969 -2.3249844,-4.71042 z m 3.9795483,-1.08356 1.3453019,-3.05974 H 5.1934852 c -1.6567191,0 -2.8839892,0.10584 -2.8839892,0.24873 0,0.13679 0.4867393,1.3379 1.0816423,2.66913 0.5949049,1.33122 1.1921215,2.70315 1.3271501,3.04872 0.1374366,0.35173 0.3386242,0.52367 0.4570459,0.3906 0.1163459,-0.13074 0.8169241,-1.61458 1.5568393,-3.29744 z m 9.6899994,2.48506 c -0.142982,-0.37113 -0.112719,-0.40103 0.14749,-0.14578 0.180062,0.17665 0.261015,0.38677 0.179894,0.46695 -0.08112,0.0802 -0.228442,-0.0644 -0.327384,-0.32117 z m 6.767461,0.26497 c 0.253585,-0.0655 0.668556,-0.0655 0.922142,0 0.253593,0.0655 0.04608,0.11909 -0.461067,0.11909 -0.507186,0 -0.714668,-0.0535 -0.461075,-0.11909 z m 6.855275,-7.4e-4 c 0.256348,-0.0659 0.612035,-0.0618 0.790413,0.01 0.178377,0.0713 -0.03136,0.12535 -0.466086,0.12005 -0.434734,-0.006 -0.580676,-0.0637 -0.324327,-0.12969 z m 4.34227,-0.0135 c 0.223884,-0.0746 0.329338,-0.72822 0.329338,-2.04112 0,-1.06223 0.08892,-1.9316 0.197601,-1.93193 0.108683,-3.4e-4 0.15884,0.87175 0.111453,1.93793 l -0.08616,1.93855 1.271772,0.10327 c 1.014669,0.0823 0.925555,0.10324 -0.44079,0.10318 -0.941912,-4e-5 -1.564365,-0.0495 -1.383224,-0.10988 z m 8.567845,0.0135 c 0.256348,-0.0659 0.612035,-0.0618 0.790412,0.01 0.178377,0.0713 -0.03136,0.12535 -0.466085,0.12005 -0.434735,-0.006 -0.580676,-0.0637 -0.324327,-0.12969 z m 6.203037,0.003 c 0.190192,-0.0753 0.417437,-0.0659 0.50499,0.0206 0.08754,0.0866 -0.06803,0.14808 -0.345807,0.13678 -0.306933,-0.0125 -0.369362,-0.0742 -0.159183,-0.15733 z m -16.944526,-0.60333 c 0.08957,-0.14323 0.281397,-0.26041 0.426308,-0.26041 0.144904,0 0.190193,0.11718 0.100639,0.26041 -0.08957,0.14321 -0.281398,0.2604 -0.426309,0.2604 -0.144912,0 -0.1902,-0.11719 -0.100638,-0.2604 z m -6.170789,-0.67272 c 0.01262,-0.30335 0.07509,-0.36505 0.159184,-0.15732 0.07612,0.18798 0.06676,0.41257 -0.02083,0.49911 -0.08756,0.0866 -0.149818,-0.0673 -0.138385,-0.34179 z m 1.41746,-0.38623 c -0.09552,-0.15274 -0.117158,-0.33357 -0.0481,-0.40183 0.06909,-0.0682 0.195772,0.0567 0.281585,0.27773 0.178154,0.45885 0.0263,0.53957 -0.233496,0.1241 z m -6.251007,-1.57741 c 0.178721,-0.17796 0.391319,-0.25797 0.472442,-0.1778 0.08112,0.0802 -0.06513,0.22579 -0.324947,0.32358 -0.375502,0.14131 -0.405765,0.1114 -0.147495,-0.14578 z m 19.698906,0.0323 c 0.08956,-0.14321 0.28139,-0.2604 0.426301,-0.2604 0.144911,0 0.190201,0.11719 0.100638,0.2604 -0.08956,0.14322 -0.281398,0.2604 -0.426301,0.2604 -0.144911,0 -0.1902,-0.11718 -0.100638,-0.2604 z m 7.366374,-0.27773 c -0.09552,-0.15275 -0.117166,-0.33356 -0.0481,-0.40183 0.06909,-0.0683 0.195772,0.0566 0.281585,0.27773 0.178152,0.45886 0.02629,0.53957 -0.233488,0.1241 z m -19.881287,-0.085 c 0,-0.0563 0.184001,-0.17213 0.408892,-0.25742 0.234474,-0.0889 0.340228,-0.0452 0.247925,0.10233 -0.154725,0.24744 -0.656817,0.366 -0.656817,0.15509 z"
       style="fill:#f47c47;stroke-width:0.26193306" />
  </g>
</svg>
