<svg version="1" xmlns="http://www.w3.org/2000/svg" width="346.667" height="346.667" viewBox="0 0 260.000000 260.000000"><path d="M0 130v130h260V0H0v130zm251 0v121H9V9h242v121z"/><path d="M15 130v115h230v-53h-33.6l-4.6-11.3-4.6-11.2-25.4-.3-25.3-.2-4.5 11.5-4.5 11.5H26V72h94v27H60v19l26.3.2 26.2.3.3 12.7.3 12.8H60v22l29.6-.2 29.5-.3 20.6-46.8L160.4 72l16.8.2 16.9.3 25 56.5c13.7 31 25.2 56.6 25.4 56.9.3.2.5-38.1.5-85.2V15H15v115z"/><path d="M169.7 123.7c-3.6 9.3-6.9 17.6-7.3 18.5-.6 1.7.5 1.8 14.6 1.8 11.8 0 15.1-.3 14.7-1.3-5.1-13-14.1-34.4-14.6-35-.4-.4-3.7 6.8-7.4 16z"/></svg>