<?xml version="1.0" encoding="UTF-8" standalone="no"?>
<!-- Created with Inkscape (http://www.inkscape.org/) -->

<svg
   xmlns:dc="http://purl.org/dc/elements/1.1/"
   xmlns:cc="http://creativecommons.org/ns#"
   xmlns:rdf="http://www.w3.org/1999/02/22-rdf-syntax-ns#"
   xmlns:svg="http://www.w3.org/2000/svg"
   xmlns="http://www.w3.org/2000/svg"
   xmlns:sodipodi="http://sodipodi.sourceforge.net/DTD/sodipodi-0.dtd"
   xmlns:inkscape="http://www.inkscape.org/namespaces/inkscape"
   width="347"
   height="347"
   viewBox="0 0 91.810415 91.810419"
   version="1.1"
   id="svg8"
   inkscape:version="0.92.2 (5c3e80d, 2017-08-06)"
   sodipodi:docname="safari-pinned-tab.svg.svg">
  <defs
     id="defs2" />
  <sodipodi:namedview
     id="base"
     pagecolor="#ffffff"
     bordercolor="#666666"
     borderopacity="1.0"
     inkscape:pageopacity="0"
     inkscape:pageshadow="2"
     inkscape:zoom="0.98994949"
     inkscape:cx="458.58287"
     inkscape:cy="208.9346"
     inkscape:document-units="mm"
     inkscape:current-layer="layer1"
     showgrid="false"
     units="px"
     inkscape:window-width="1366"
     inkscape:window-height="712"
     inkscape:window-x="0"
     inkscape:window-y="28"
     inkscape:window-maximized="1" />
  <metadata
     id="metadata5">
    <rdf:RDF>
      <cc:Work
         rdf:about="">
        <dc:format>image/svg+xml</dc:format>
        <dc:type
           rdf:resource="http://purl.org/dc/dcmitype/StillImage" />
        <dc:title></dc:title>
      </cc:Work>
    </rdf:RDF>
  </metadata>
  <g
     inkscape:label="Camada 1"
     inkscape:groupmode="layer"
     id="layer1"
     transform="translate(0,-205.18957)">
    <path
       inkscape:connector-curvature="0"
       id="path107"
       d="M 0.07105786,251.16989 V 205.12785 H 46.269663 92.468268 v 46.04204 46.04203 H 46.269663 0.07105786 Z"
       style="fill:#fefdfd;stroke-width:0.2658228" />
    <path
       inkscape:connector-curvature="0"
       id="path105"
       d="m 41.831529,296.08409 c -0.241902,-0.6203 -0.7492,-1.93657 -1.127333,-2.92503 -0.378134,-0.98846 -0.862375,-2.06322 -1.076092,-2.38835 -0.21372,-0.32512 -0.696944,-1.40768 -1.073834,-2.40568 -0.37689,-0.99799 -0.937348,-2.307 -1.245461,-2.9089 -0.574045,-1.12142 -1.361397,-2.93487 -3.18269,-7.33049 -0.569844,-1.3753 -1.197862,-2.7486 -1.395598,-3.05178 -0.197733,-0.30318 -0.513973,-1.02891 -0.702757,-1.61273 -0.18878,-0.58382 -0.685235,-1.74274 -1.103227,-2.57538 -0.417995,-0.83264 -1.051669,-2.28619 -1.408164,-3.2301 -0.356495,-0.9439 -0.83515,-2.00059 -1.063677,-2.34819 -0.22853,-0.3476 -0.640225,-1.28293 -0.914882,-2.07854 -0.274656,-0.79559 -0.858956,-2.1625 -1.298441,-3.03758 -0.439486,-0.87507 -0.949888,-2.06871 -1.134225,-2.65252 -0.184338,-0.58383 -0.558785,-1.43144 -0.832106,-1.8836 -0.273321,-0.45215 -0.787612,-1.58662 -1.142868,-2.52103 -0.355257,-0.93441 -1.058714,-2.59457 -1.563238,-3.68922 -2.135165,-4.63263 -2.856672,-6.27347 -2.856672,-6.49659 0,-0.22042 -0.921268,-2.29379 -3.482581,-7.83775 -0.574246,-1.24295 -1.044083,-2.36035 -1.044083,-2.48309 0,-0.12275 -0.358339,-0.97147 -0.796308,-1.88604 -0.795234,-1.66062 -1.878745,-4.16387 -3.103609,-7.1703 -0.3567835,-0.87573 -1.0649426,-2.42816 -1.573687,-3.44983 -0.5087441,-1.02169 -0.9231874,-1.94698 -0.9209853,-2.05619 0.0022,-0.10923 -0.7811252,-1.92209 -1.7407278,-4.02858 -1.4338697,-3.14758 -1.7724141,-4.15905 -1.9000983,-5.6769 -0.085451,-1.01581 -0.076892,-2.15854 0.019022,-2.53939 l 0.1743876,-0.69246 H 46.165004 87.988415 l -0.18536,1.09341 c -0.189706,1.11906 -1.063643,3.32384 -2.001362,5.04908 -0.2893,0.53225 -0.835066,1.78614 -1.212819,2.78641 -0.377754,1.00026 -0.798621,1.95296 -0.935265,2.1171 -0.136647,0.16413 -0.652569,1.2986 -1.146497,2.52103 -0.493929,1.22243 -1.524285,3.5959 -2.289683,5.27438 -0.765398,1.67848 -1.719824,3.82799 -2.120945,4.7767 -0.401124,0.9487 -1.030578,2.322 -1.398787,3.05178 -0.36821,0.72977 -0.756185,1.6254 -0.86217,1.99028 -0.105983,0.36489 -0.584826,1.43964 -1.0641,2.38835 -0.479269,0.94871 -1.021723,2.20258 -1.20545,2.78641 -0.18373,0.58381 -0.557677,1.43143 -0.830997,1.88358 -0.273323,0.45216 -0.804186,1.6356 -1.1797,2.62987 -0.375512,0.99427 -0.962824,2.29616 -1.305133,2.8931 -0.342308,0.59695 -0.769748,1.56302 -0.949864,2.14684 -0.180117,0.58381 -0.659311,1.65857 -1.06488,2.38835 -0.405567,0.72977 -0.821624,1.6254 -0.924568,1.99028 -0.196782,0.69749 -1.664024,4.01627 -5.580217,12.62198 -0.668401,1.46879 -1.215275,2.76853 -1.215275,2.88832 0,0.11978 -0.462392,1.12727 -1.027538,2.23885 -0.565145,1.11158 -1.178796,2.49873 -1.363665,3.08256 -0.184872,0.58381 -0.552887,1.42035 -0.817811,1.85897 -0.264927,0.43863 -0.838024,1.69251 -1.273546,2.78641 -1.133889,2.84798 -3.202639,7.4632 -3.511711,7.83434 -0.14468,0.17375 -0.486236,0.96238 -0.75901,1.75253 -0.272774,0.79014 -0.81322,2.0606 -1.200996,2.82324 -0.387772,0.76265 -0.989343,2.13326 -1.336822,3.04581 -0.347478,0.91256 -0.791254,2.0473 -0.986166,2.52165 l -0.354388,0.86246 h -2.80617 -2.806169 z m 4.618886,-34.16664 c 1.789058,-3.66075 2.881403,-6.03097 2.881403,-6.25221 0,-0.1325 0.471192,-1.25786 1.04709,-2.50082 1.837983,-3.96688 3.408054,-7.547 3.609632,-8.23077 0.107569,-0.36489 0.538065,-1.32023 0.956659,-2.12298 0.418595,-0.80275 1.076628,-2.23576 1.462294,-3.18446 1.639257,-4.03243 2.707086,-6.5359 2.99958,-7.03236 0.171982,-0.29192 0.658383,-1.36666 1.080889,-2.38835 1.05284,-2.54593 3.018036,-6.92882 3.7136,-8.2823 0.642241,-1.24972 0.732718,-2.20111 0.254642,-2.67756 -0.242592,-0.24177 -4.924386,-0.31845 -19.443739,-0.31845 h -19.12421 l -0.300332,0.65693 c -0.254334,0.5563 -0.176049,0.91194 0.511126,2.322 0.446302,0.9158 1.108774,2.38159 1.472159,3.25731 0.363385,0.87573 1.286755,2.96554 2.051934,4.64401 0.765176,1.67848 1.745546,3.94741 2.178596,5.04206 0.433049,1.09467 1.002853,2.35681 1.266231,2.80476 0.263376,0.44796 0.691809,1.463 0.952071,2.25566 0.260262,0.79267 0.748013,1.91887 1.083888,2.50269 0.335876,0.58381 0.920966,1.888 1.3002,2.89817 0.379234,1.01018 0.802112,1.9719 0.93973,2.13716 0.137619,0.16525 0.720477,1.42856 1.295241,2.80733 1.919043,4.60348 2.622856,6.21205 3.304915,7.55336 0.372335,0.73222 0.808582,1.81842 0.969444,2.41379 0.388487,1.43784 1.785761,3.34544 2.371554,3.23772 0.248655,-0.0458 0.773088,-0.73994 1.165403,-1.54269 z"
       style="fill:#fbe3d9;stroke-width:0.2658228" />
    <path
       inkscape:connector-curvature="0"
       id="path103"
       d="m 42.932207,296.21678 c -0.17413,-0.54733 -0.473306,-1.24492 -0.664835,-1.55019 -0.191528,-0.30528 -0.704666,-1.43974 -1.140303,-2.52103 -0.435639,-1.0813 -1.359275,-3.21987 -2.052526,-4.7524 -1.130185,-2.49843 -1.841205,-4.13741 -4.379095,-10.09431 -0.406572,-0.95431 -0.991319,-2.22758 -1.299429,-2.82948 -0.308115,-0.60191 -0.85979,-1.8876 -1.225947,-2.85709 -0.366153,-0.96948 -0.848318,-2.08457 -1.071472,-2.47796 -0.223156,-0.39339 -0.779175,-1.61088 -1.235595,-2.70554 -0.456421,-1.09467 -1.284138,-3.07881 -1.839373,-4.40922 -0.555235,-1.33041 -1.141175,-2.64399 -1.30209,-2.91908 -0.160913,-0.2751 -0.638256,-1.3361 -1.060763,-2.35779 -0.422506,-1.02167 -1.335736,-3.11148 -2.029399,-4.644 -0.693663,-1.53252 -1.770753,-3.98058 -2.393535,-5.44013 -0.622781,-1.45954 -1.554083,-3.60906 -2.06956,-4.77669 -0.515476,-1.16763 -1.312925,-3.01861 -1.772107,-4.11327 -0.459183,-1.09466 -1.243297,-2.88592 -1.742475,-3.98058 -1.978332,-4.33833 -3.067749,-6.82436 -3.067749,-7.00055 0,-0.17216 -1.174351,-2.85182 -3.32843,-7.59491 -2.288341,-5.03871 -3.3284297,-7.42878 -3.3284297,-7.64856 0,-0.13119 -0.3119312,-0.69663 -0.6931804,-1.25652 -0.7065135,-1.03758 -1.3199671,-3.93254 -1.0060709,-4.74777 0.1423809,-0.36979 4.3832979,-0.41186 41.512312,-0.41186 h 41.353732 l -0.06809,0.59708 c -0.132977,1.16608 -0.242427,1.432 -4.013985,9.75242 -2.181653,4.81294 -3.326712,7.42224 -3.326712,7.58072 0,0.0939 -0.311238,0.78511 -0.69164,1.53608 -0.380402,0.75097 -1.049901,2.26103 -1.487773,3.35569 -0.437875,1.09466 -0.907688,2.12458 -1.044033,2.28872 -0.136343,0.16414 -0.653019,1.29861 -1.148168,2.52104 -0.495147,1.22243 -1.466258,3.47648 -2.158025,5.009 -0.691765,1.53253 -1.64953,3.68204 -2.128364,4.7767 -0.478836,1.09465 -1.495497,3.36359 -2.259247,5.04207 -1.949395,4.28413 -3.09961,6.90356 -4.305292,9.80458 -0.573028,1.37876 -1.154464,2.64207 -1.292083,2.80733 -0.137618,0.16525 -0.541741,1.06726 -0.89805,2.00446 -0.35631,0.93721 -1.086765,2.65934 -1.623233,3.82697 -1.221318,2.65824 -2.415421,5.31423 -3.996827,8.88997 -1.283171,2.90139 -2.114785,4.75034 -4.377776,9.7332 -0.740917,1.63142 -1.347123,3.04965 -1.347123,3.15163 0,0.10198 -0.339872,0.85699 -0.755274,1.6778 -0.415401,0.8208 -1.084607,2.35737 -1.487124,3.41458 -0.402518,1.05723 -0.838239,1.98775 -0.968274,2.06784 -0.130032,0.0801 -0.36412,0.61826 -0.520196,1.19591 l -0.283774,1.05028 H 45.08182 43.248811 Z m 3.359653,-31.94602 c 0.38201,-0.6031 1.028485,-1.88683 1.436611,-2.85275 0.408127,-0.96593 1.366895,-3.12952 2.1306,-4.808 0.763707,-1.67847 1.843332,-4.12653 2.399172,-5.44012 2.318273,-5.47869 2.630882,-6.19619 3.059426,-7.02211 0.246938,-0.47589 0.902985,-1.95663 1.457885,-3.29051 0.554899,-1.33388 1.459127,-3.44029 2.009394,-4.6809 0.550266,-1.24061 1.422163,-3.27071 1.937553,-4.51133 0.515387,-1.24061 1.090492,-2.49449 1.278014,-2.7864 0.187518,-0.29191 0.717425,-1.48608 1.177571,-2.65372 0.460147,-1.16763 0.989351,-2.36181 1.176009,-2.65372 0.591307,-0.92472 1.486735,-3.57183 1.486735,-4.39516 0,-0.60677 -0.160228,-0.85344 -0.68302,-1.05153 -0.421222,-0.15961 -8.158397,-0.25881 -20.18596,-0.25881 -16.18854,0 -19.588584,0.0624 -20.006893,0.36725 -0.775708,0.5653 -0.586129,1.95898 0.624695,4.59247 0.591234,1.28591 1.332182,2.99451 1.646548,3.7969 0.314366,0.80238 0.667776,1.5786 0.785355,1.72491 0.117576,0.14633 0.692452,1.40051 1.277499,2.78707 0.585047,1.38657 1.511778,3.53609 2.059404,4.7767 0.547625,1.24061 1.506594,3.44983 2.131041,4.90938 1.150004,2.68794 2.24706,5.16885 4.51788,10.21682 0.689404,1.53252 1.707818,3.86116 2.263146,5.17475 4.173649,9.87251 4.551865,10.37871 6.021335,8.05881 z"
       style="fill:#fad8c9;stroke-width:0.2658228" />
    <path
       inkscape:connector-curvature="0"
       id="path101"
       d="m 43.573898,296.48215 c -0.09697,-0.40137 -0.472559,-1.32025 -0.83465,-2.04195 -0.362093,-0.72171 -1.07619,-2.27414 -1.586884,-3.44984 -0.51069,-1.17571 -1.323769,-3.03329 -1.806841,-4.12794 -0.48307,-1.09466 -1.501117,-3.4233 -2.262326,-5.17476 -0.761209,-1.75145 -1.779709,-4.08009 -2.263332,-5.17475 -0.483624,-1.09466 -1.502124,-3.4233 -2.263333,-5.17475 -0.761209,-1.75146 -1.805811,-4.1398 -2.321342,-5.30745 -0.515531,-1.16763 -1.390688,-3.19772 -1.944794,-4.51132 -0.554106,-1.31359 -1.62867,-3.76165 -2.387921,-5.44012 -0.759251,-1.67848 -1.746361,-3.94741 -2.193579,-5.04207 -0.447217,-1.09466 -0.913747,-2.11912 -1.036733,-2.27658 -0.122986,-0.15746 -0.528446,-1.09342 -0.901022,-2.07991 -0.372576,-0.98648 -0.929504,-2.28608 -1.237617,-2.88799 -0.308114,-0.6019 -0.889604,-1.87516 -1.2922,-2.82947 -1.189713,-2.82007 -3.053665,-7.128 -4.252775,-9.82895 -1.104921,-2.48878 -2.825514,-6.4593 -4.254887,-9.81876 -0.403651,-0.94871 -1.035174,-2.32201 -1.4033833,-3.05178 -0.3682092,-0.72977 -0.7599039,-1.6254 -0.8704329,-1.99028 -0.424751,-1.40223 -2.8763603,-6.52931 -3.3856396,-7.08044 -0.3790397,-0.41018 -0.575769,-1.08667 -0.6752673,-2.322 L 4.2585365,205.12785 H 45.434385 c 22.646715,0 41.175178,0.0896 41.174361,0.19903 -0.0048,0.63666 -0.721446,2.65545 -1.766443,4.97573 -2.576718,5.72125 -3.018207,6.69815 -3.837757,8.49189 -0.4668,1.02169 -1.122159,2.5144 -1.456355,3.31715 -0.334198,0.80275 -1.230031,2.83285 -1.990745,4.51133 -0.760711,1.67848 -1.839367,4.12654 -2.397013,5.44013 -0.557644,1.31358 -1.635483,3.76164 -2.395193,5.44012 -0.759713,1.67847 -1.718873,3.82799 -2.131471,4.7767 -0.412597,0.9487 -1.371185,3.09821 -2.130195,4.77669 -0.75901,1.67848 -1.717598,3.82799 -2.130196,4.7767 -0.412596,0.94871 -1.371757,3.09822 -2.131469,4.77669 -0.759711,1.67848 -1.838551,4.12653 -2.397418,5.44013 -0.953893,2.24207 -1.668084,3.8504 -4.684145,10.54854 -0.673642,1.49603 -1.457687,3.30219 -1.742326,4.0137 -0.284637,0.71149 -0.767347,1.78166 -1.072689,2.37816 -0.305342,0.59648 -0.885208,1.86532 -1.288592,2.81963 -0.403385,0.95431 -1.358279,3.1084 -2.121991,4.78688 -0.763713,1.67847 -1.68495,3.76828 -2.047196,4.644 -0.362244,0.87573 -0.992486,2.24903 -1.400541,3.05178 -0.408052,0.80276 -0.821214,1.78795 -0.918136,2.18932 -0.162866,0.67447 -0.276347,0.72977 -1.497447,0.72977 -1.221081,0 -1.334588,-0.0553 -1.49753,-0.72977 z m 2.513679,-31.0069 c 0.433753,-0.52443 1.207399,-1.92758 1.719213,-3.11812 0.511814,-1.19053 1.555139,-3.53789 2.318497,-5.21637 0.763358,-1.67848 1.842344,-4.12654 2.397744,-5.44013 0.555403,-1.31359 1.572902,-3.64222 2.26111,-5.17476 0.688207,-1.53252 1.70897,-3.86116 2.268359,-5.17474 1.771468,-4.15986 2.832595,-6.59772 3.407516,-7.82848 1.081324,-2.31485 2.690771,-5.98764 3.255774,-7.42975 0.314366,-0.80239 0.670399,-1.5786 0.791181,-1.72493 0.120782,-0.14631 0.662877,-1.37127 1.204654,-2.72213 1.099836,-2.7423 1.090749,-3.63072 -0.04153,-4.05976 -0.435175,-0.16489 -8.129426,-0.23465 -20.91663,-0.18964 -19.875927,0.07 -20.235138,0.0805 -20.625107,0.60195 -0.493097,0.65941 -0.348496,1.6991 0.522411,3.75616 0.942623,2.22645 3.131856,7.24081 4.442708,10.17587 1.787644,4.00261 2.918115,6.58777 4.003564,9.15533 0.555328,1.31359 1.573742,3.64223 2.263146,5.17475 2.065678,4.59196 3.317635,7.43057 4.389029,9.95145 1.340847,3.15488 3.296671,7.55693 3.719481,8.37158 0.402122,0.7748 1.347559,1.84525 1.629756,1.84525 0.110262,0 0.555363,-0.42909 0.989119,-0.95353 z"
       style="fill:#f9c8b3;stroke-width:0.2658228" />
    <path
       inkscape:connector-curvature="0"
       id="path99"
       d="m 43.775697,295.28659 c -1.553788,-3.33279 -3.502629,-7.6736 -4.556505,-10.14909 -1.427338,-3.35272 -2.666472,-6.18355 -4.12371,-9.4207 -0.689879,-1.53253 -1.711107,-3.86116 -2.269395,-5.17476 -0.558287,-1.31359 -1.518352,-3.52281 -2.133476,-4.90938 -0.615123,-1.38657 -1.574187,-3.59579 -2.131251,-4.90938 -0.557065,-1.31359 -1.631421,-3.76165 -2.387459,-5.44013 -0.756038,-1.67848 -1.716557,-3.8877 -2.134485,-4.90938 -0.417928,-1.02168 -0.942523,-2.21585 -1.165767,-2.65372 -0.223245,-0.43786 -0.75843,-1.63204 -1.189302,-2.65372 -0.43087,-1.02168 -1.204548,-2.81294 -1.719283,-3.98058 -0.514735,-1.16764 -1.558689,-3.55598 -2.319897,-5.30744 -0.761208,-1.75145 -1.779551,-4.0801 -2.262984,-5.17475 -0.483433,-1.09466 -1.254664,-2.88592 -1.713847,-3.98058 -0.459183,-1.09466 -1.243721,-2.88592 -1.74342,-3.98058 -1.795429,-3.93315 -3.2709239,-7.30867 -3.4526123,-7.89863 -0.4429152,-1.43819 -2.8176012,-6.14424 -3.2111665,-6.36375 -0.4054959,-0.22615 -0.9090956,-1.74664 -0.9233367,-2.78777 -0.00602,-0.44029 2.1087429,-0.4644 40.7336275,-0.4644 h 40.739981 v 0.84565 c 0,0.46511 -0.52614,1.98768 -1.169201,3.38349 -1.22668,2.66261 -2.628927,5.79154 -4.437584,9.90192 -0.594067,1.35007 -1.331146,2.99206 -1.63795,3.64886 -0.306806,0.6568 -0.945663,2.0898 -1.419684,3.18447 -0.474022,1.09465 -1.547726,3.54271 -2.386011,5.44012 -0.838285,1.89741 -1.854822,4.23063 -2.258973,5.18494 -0.404151,0.9543 -0.984646,2.22313 -1.289988,2.81963 -0.305342,0.59649 -0.788052,1.66667 -1.072689,2.37816 -0.480316,1.20063 -0.991078,2.35272 -4.220654,9.52017 -1.486599,3.29923 -2.577432,5.76747 -4.280749,9.68608 -0.729592,1.67848 -1.819847,4.15639 -2.422791,5.50647 -0.602943,1.35007 -1.575556,3.52944 -2.16136,4.84303 -0.585803,1.31359 -1.544391,3.46311 -2.130194,4.7767 -0.585805,1.31359 -1.544392,3.4631 -2.130195,4.77669 -0.585805,1.31359 -1.530215,3.43326 -2.098695,4.71036 -4.499122,10.1074 -5.15987,11.4546 -5.623263,11.46532 -0.239806,0.005 -0.757579,-0.75902 -1.295731,-1.91332 z m 1.881623,-28.12804 c 0.620139,-0.48815 1.782627,-2.45296 2.622337,-4.43219 0.405479,-0.95574 1.360187,-3.11101 2.121568,-4.78949 1.691659,-3.72929 2.899708,-6.46761 4.390225,-9.95144 0.624451,-1.45956 1.63938,-3.78819 2.2554,-5.17476 0.61602,-1.38657 1.634437,-3.71521 2.263146,-5.17476 0.628708,-1.45954 1.564193,-3.60905 2.078859,-4.77669 0.514664,-1.16763 1.357643,-3.0945 1.873289,-4.28191 0.515643,-1.1874 1.230472,-2.79954 1.588505,-3.58252 2.76172,-6.03955 2.883631,-6.49338 2.013305,-7.49475 l -0.623713,-0.71763 -20.103715,0.003 c -11.057044,10e-4 -20.553054,0.006 -21.102245,0.011 -0.634867,0.005 -1.192482,0.20164 -1.531078,0.53909 -0.975701,0.97239 -0.950044,1.05968 2.925177,9.95145 1.704706,3.91148 2.801648,6.40492 4.261207,9.68607 0.616787,1.38657 1.577212,3.59579 2.134277,4.90939 0.557065,1.31359 1.635966,3.76165 2.397559,5.44012 0.761592,1.67847 1.738917,3.94384 2.171832,5.03413 0.432914,1.0903 0.887998,2.10536 1.011302,2.25567 0.123301,0.15032 0.644145,1.28835 1.157426,2.52897 2.473135,5.97761 3.958818,9.0695 4.724783,9.83287 0.607515,0.60546 0.802833,0.6318 1.370554,0.18492 z"
       style="fill:#f8b193;stroke-width:0.2658228" />
    <path
       inkscape:connector-curvature="0"
       id="path97"
       d="m 44.229705,293.81383 c -0.342532,-0.4094 -0.943862,-1.45431 -1.336292,-2.322 -2.406433,-5.32087 -3.11983,-6.95751 -3.290329,-7.54851 -0.105268,-0.36488 -0.463219,-1.1411 -0.795444,-1.72491 -0.332225,-0.58382 -0.68732,-1.36004 -0.789101,-1.72492 -0.170637,-0.61173 -0.854179,-2.17479 -3.597556,-8.22654 -0.562395,-1.24061 -1.105705,-2.55419 -1.207355,-2.91908 -0.10165,-0.36489 -0.468355,-1.20081 -0.814898,-1.85761 -0.605851,-1.14825 -1.07345,-2.22528 -3.326166,-7.66122 -0.566731,-1.36756 -1.145789,-2.62501 -1.286795,-2.79434 -0.141005,-0.16933 -0.611992,-1.19992 -1.046637,-2.29023 -1.223186,-3.06832 -2.661519,-6.37266 -3.34643,-7.68785 -0.342037,-0.65679 -0.773124,-1.67185 -0.95797,-2.25566 -0.184847,-0.58382 -0.680647,-1.74781 -1.101778,-2.58665 -0.421132,-0.83883 -1.01972,-2.21213 -1.330196,-3.05177 -0.310477,-0.83965 -0.67115,-1.6616 -0.801498,-1.82656 -0.217571,-0.27535 -0.694353,-1.38645 -3.329316,-7.75869 -0.504992,-1.22124 -1.083165,-2.47513 -1.284828,-2.7864 -0.201663,-0.31128 -0.680392,-1.40189 -1.06384,-2.42357 -0.383448,-1.02168 -0.864589,-2.11229 -1.069202,-2.42358 -0.343202,-0.52211 -1.111926,-2.30327 -2.905335,-6.73176 -0.384198,-0.9487 -0.9948104,-2.32201 -1.3569166,-3.05178 -0.3621061,-0.72977 -0.9484383,-2.00356 -1.3029608,-2.83066 -0.3545222,-0.82709 -0.9461834,-1.70075 -1.3148021,-1.94145 -0.5283412,-0.34502 -1.2426115,-1.59073 -1.2426115,-2.16715 0,-0.0512 18.222688,-0.0931 40.494865,-0.0931 h 40.494861 l -0.182364,0.82748 c -0.100298,0.4551 -0.598007,1.73884 -1.106016,2.85275 -0.508012,1.11389 -1.386658,3.04032 -1.952549,4.28093 -1.811615,3.97163 -3.3795,7.53633 -3.735056,8.4919 -0.190077,0.51084 -0.612495,1.40647 -0.938702,1.99029 -0.32621,0.58381 -0.680203,1.36003 -0.786657,1.72491 -0.179671,0.61588 -1.017861,2.54414 -3.575966,8.22654 -0.5585,1.24061 -1.494748,3.33042 -2.080551,4.64401 -0.585804,1.31359 -1.558627,3.46502 -2.161829,4.78095 -0.603204,1.31593 -1.096733,2.49162 -1.096733,2.61265 0,0.12103 -0.411261,1.07445 -0.913915,2.11872 -1.604575,3.33353 -3.560922,7.71516 -3.750626,8.40029 -0.101033,0.36488 -0.450595,1.1411 -0.776805,1.72492 -0.326208,0.58381 -0.74934,1.47945 -0.94029,1.99028 -0.344418,0.92141 -1.363735,3.25348 -3.653703,8.35922 -0.654619,1.45955 -1.669228,3.72848 -2.254688,5.04207 -1.524219,3.41988 -2.679171,5.98578 -4.068806,9.03946 -0.668402,1.46879 -1.215276,2.77348 -1.215276,2.89929 0,0.12583 -0.405254,1.0736 -0.900564,2.10618 -0.495311,1.03256 -1.341973,2.83273 -1.881477,4.00036 -0.915294,1.98097 -1.841731,3.31716 -2.299918,3.31716 -0.107905,0 -0.476442,-0.33497 -0.818978,-0.74438 z m 1.632593,-25.52321 c 0.686927,-0.36639 2.01701,-2.60541 2.97249,-5.0038 0.445407,-1.11803 0.90872,-2.15222 1.029579,-2.29817 0.12086,-0.14596 0.590791,-1.19674 1.044291,-2.33509 0.453502,-1.13834 0.997296,-2.33251 1.208436,-2.65372 0.211137,-0.3212 0.69889,-1.41992 1.083894,-2.44161 0.385003,-1.02168 0.915555,-2.21585 1.179006,-2.65371 0.26345,-0.43787 0.629822,-1.27379 0.814158,-1.85761 0.18434,-0.58382 0.677157,-1.74274 1.095149,-2.57538 0.417996,-0.83265 1.066437,-2.32537 1.440985,-3.31715 0.374546,-0.9918 0.836341,-2.04209 1.02621,-2.334 0.18987,-0.29191 0.601815,-1.21773 0.915433,-2.05736 0.313618,-0.83965 0.915616,-2.21295 1.337773,-3.05178 0.422159,-0.83884 0.855992,-1.82371 0.964076,-2.18859 0.10808,-0.36489 0.525759,-1.32023 0.928171,-2.12298 0.402413,-0.80275 0.823645,-1.75808 0.936072,-2.12297 0.214149,-0.69503 1.951682,-4.6195 3.493959,-7.8916 1.303037,-2.76454 1.177364,-4.55452 -0.360685,-5.13731 -0.934766,-0.35419 -42.548858,-0.37307 -43.481387,-0.0197 -0.82544,0.31276 -1.222342,0.76704 -1.445955,1.65495 -0.184808,0.73385 0.09213,1.61517 1.537223,4.89207 0.514923,1.16763 1.37182,3.13802 1.904216,4.37863 0.532396,1.24062 1.247842,2.79305 1.58988,3.44984 0.342037,0.6568 0.773125,1.67184 0.95797,2.25566 0.184847,0.58381 0.680645,1.74781 1.101779,2.58665 0.421132,0.83883 1.022289,2.21213 1.335907,3.05178 0.313617,0.83963 0.725563,1.76545 0.915433,2.05735 0.189869,0.29192 0.658949,1.36668 1.042397,2.38836 0.383448,1.02168 0.87751,2.13561 1.097916,2.4754 0.220408,0.33979 0.692417,1.39008 1.048914,2.33399 0.356493,0.94391 0.990167,2.39745 1.408162,3.2301 0.417992,0.83265 0.912439,1.99157 1.098768,2.57538 0.186328,0.58382 0.609734,1.53917 0.940901,2.12298 0.331169,0.58382 0.688405,1.36004 0.793858,1.72492 0.254268,0.8798 2.553797,6.00195 3.795962,8.45541 1.268563,2.5056 2.033447,3.07745 3.249059,2.42908 z"
       style="fill:#f6956b;stroke-width:0.2658228" />
    <path
       inkscape:connector-curvature="0"
       id="path95"
       d="m 44.063385,291.53064 c -0.438314,-0.49752 -1.006695,-1.54242 -1.263064,-2.322 -0.256372,-0.77958 -0.868752,-2.22051 -1.360843,-3.20205 -0.492094,-0.98156 -0.894715,-1.95683 -0.894715,-2.16729 0,-0.21045 -0.402158,-1.13891 -0.893685,-2.06326 -0.491529,-0.92433 -0.981743,-1.97915 -1.089368,-2.34404 -0.180628,-0.61239 -0.898541,-2.24921 -3.608179,-8.22653 -0.562395,-1.24061 -1.104585,-2.55421 -1.20487,-2.91909 -0.100281,-0.36489 -0.453286,-1.1411 -0.784455,-1.72491 -0.331167,-0.58383 -0.754658,-1.53916 -0.941088,-2.12298 -0.186432,-0.58383 -0.726087,-1.8377 -1.199236,-2.78641 -0.473148,-0.94871 -0.947419,-2.02347 -1.05394,-2.38835 -0.10652,-0.36489 -0.657131,-1.61876 -1.223579,-2.78641 -0.566445,-1.16763 -1.345868,-2.89918 -1.732048,-3.84789 -1.756702,-4.31559 -2.058439,-5.02017 -2.897943,-6.76698 -0.491013,-1.02169 -0.981116,-2.15615 -1.089118,-2.52104 -0.108004,-0.36488 -0.586512,-1.43964 -1.063354,-2.38835 -0.476842,-0.9487 -0.948914,-2.02345 -1.049051,-2.38834 -0.100136,-0.36488 -0.581156,-1.49936 -1.068933,-2.52103 -0.840226,-1.75992 -1.29172,-2.80211 -3.103998,-7.16505 -0.424386,-1.02168 -1.054304,-2.39498 -1.399816,-3.05177 -0.345512,-0.65681 -0.777089,-1.67186 -0.959061,-2.25567 -0.181971,-0.58382 -0.734204,-1.8377 -1.227184,-2.7864 -0.49298,-0.94871 -1.197264,-2.47128 -1.565075,-3.3835 -0.367812,-0.91222 -0.96991,-2.40493 -1.337996,-3.31715 -0.3680855,-0.91221 -0.9606663,-2.25566 -1.3168461,-2.98543 -0.3561798,-0.72977 -0.9348295,-1.98366 -1.2858882,-2.78641 -0.3510589,-0.80275 -0.9673642,-1.84765 -1.3695674,-2.32201 L 5.3492054,205.12785 H 44.932564 84.515925 l -0.185566,0.59708 c -0.102061,0.3284 -0.453248,1.13447 -0.780416,1.79127 -0.327166,0.65679 -0.750004,1.67184 -0.93964,2.25565 -0.189635,0.58383 -0.732324,1.778 -1.205978,2.65372 -0.473654,0.87573 -1.010045,2.06991 -1.191982,2.65373 -0.181938,0.58382 -0.613635,1.5487 -0.959328,2.14418 -0.345693,0.59548 -0.866451,1.77188 -1.157242,2.6142 -0.29079,0.84233 -0.772928,1.92533 -1.071419,2.40666 -0.298491,0.48133 -0.774339,1.54611 -1.057442,2.36617 -0.283103,0.82007 -0.817393,2.05617 -1.187307,2.7469 -0.369916,0.69072 -0.960314,1.97236 -1.311993,2.84809 -0.351676,0.87573 -1.265868,2.96554 -2.031537,4.644 -1.89815,4.16109 -3.139985,6.99446 -3.896377,8.88997 -0.349454,0.87573 -0.951297,2.18932 -1.33743,2.91909 -0.386132,0.72977 -0.925535,1.97412 -1.198674,2.7652 -0.273139,0.79109 -0.789426,1.93629 -1.147304,2.54489 -0.357881,0.60861 -0.947548,1.89257 -1.310379,2.85325 -0.362828,0.96068 -0.846665,2.03108 -1.075192,2.37869 -0.22853,0.34759 -0.640225,1.28293 -0.914882,2.07853 -0.274656,0.7956 -0.875421,2.18896 -1.335032,3.09636 -0.459612,0.9074 -0.835658,1.77568 -0.835658,1.92951 0,0.15384 -0.520995,1.38127 -1.157766,2.72763 -1.11075,2.34852 -1.61223,3.44903 -4.259548,9.34761 -0.655054,1.45954 -1.27428,2.95226 -1.376064,3.31715 -0.101781,0.36488 -0.48062,1.17672 -0.841866,1.8041 -0.361245,0.62736 -0.888566,1.81199 -1.171826,2.63251 -0.283257,0.82052 -0.79431,1.97905 -1.135673,2.57453 -0.341362,0.59548 -0.886487,1.80738 -1.211387,2.69312 -0.554258,1.51098 -1.629751,3.03359 -2.142782,3.03359 -0.125351,0 -0.586535,-0.40707 -1.02485,-0.90459 z m 2.655693,-22.64718 c 1.102117,-1.179 2.025712,-2.74454 2.599216,-4.4058 0.294753,-0.85381 0.780131,-1.94619 1.078622,-2.42752 0.298491,-0.48133 0.777785,-1.55609 1.065097,-2.38835 0.287313,-0.83226 0.762834,-1.90093 1.056707,-2.37482 0.293877,-0.47389 0.843662,-1.68584 1.221744,-2.69323 0.378084,-1.00739 0.852419,-2.0863 1.054083,-2.39759 0.340338,-0.52533 1.182314,-2.48148 2.897525,-6.73176 0.382852,-0.94871 1.039051,-2.38171 1.458218,-3.18446 0.419166,-0.80275 0.91433,-1.93722 1.100365,-2.52104 0.186035,-0.58382 0.725366,-1.8377 1.198514,-2.78641 0.473149,-0.9487 0.948784,-2.02345 1.056968,-2.38835 0.108188,-0.36488 0.558457,-1.37992 1.000606,-2.25565 0.442149,-0.87573 1.029446,-2.24098 1.30511,-3.0339 0.27566,-0.79291 0.723816,-1.81768 0.995901,-2.27727 0.272081,-0.45958 0.646527,-1.30355 0.832096,-1.87548 0.185572,-0.57193 0.817292,-1.96323 1.403825,-3.09176 0.880295,-1.69375 1.071587,-2.33422 1.096004,-3.66954 0.02738,-1.49744 -0.03297,-1.67342 -0.812099,-2.36824 -0.701708,-0.62578 -1.16666,-0.77979 -2.795881,-0.92615 -1.074812,-0.0965 -11.000873,-0.1376 -22.057917,-0.0912 -18.593864,0.078 -20.168117,0.11944 -20.961214,0.5515 -1.103514,0.60118 -1.405834,1.19351 -1.405834,2.75443 0,1.28043 0.29806,2.05171 3.096974,8.01405 0.639879,1.36308 1.163416,2.63469 1.163416,2.8258 0,0.1911 0.37068,1.04623 0.823733,1.90029 0.453054,0.85406 1.097615,2.26934 1.432359,3.14507 0.334745,0.87573 1.236664,2.96553 2.004264,4.64401 0.767602,1.67848 1.682859,3.76828 2.033907,4.64401 0.351046,0.87572 0.99351,2.30873 1.427694,3.18446 0.434185,0.87573 1.104104,2.36845 1.488711,3.31715 1.800257,4.44069 2.562579,6.20984 2.900713,6.73177 0.201663,0.31128 0.675999,1.39019 1.054082,2.39758 0.378082,1.00739 0.927868,2.21934 1.221744,2.69323 0.293874,0.4739 0.772238,1.55081 1.063028,2.39313 0.592605,1.7166 1.511922,3.37944 2.544492,4.60242 0.937017,1.10981 2.367858,1.14801 3.357227,0.0896 z"
       style="fill:#f58554;stroke-width:0.2658228" />
    <path
       inkscape:connector-curvature="0"
       id="path93"
       d="m 44.19582,289.84357 c -0.23408,-0.25778 -0.552373,-1.03246 -0.707318,-1.72152 -0.154948,-0.68906 -0.630328,-1.8216 -1.056398,-2.51676 -0.426072,-0.69515 -0.915947,-1.80129 -1.088613,-2.45808 -0.172666,-0.6568 -0.648413,-1.79126 -1.057219,-2.52104 -0.408805,-0.72977 -0.8907,-1.80452 -1.070875,-2.38835 -0.180175,-0.58381 -0.721753,-1.77799 -1.203504,-2.65372 -0.481749,-0.87572 -1.017725,-2.1296 -1.191054,-2.78639 -0.173331,-0.65681 -0.652394,-1.73156 -1.064583,-2.38835 -0.412193,-0.65681 -0.832851,-1.61214 -0.934799,-2.12298 -0.101946,-0.51085 -0.545929,-1.57599 -0.986629,-2.36701 -0.440701,-0.79102 -0.979714,-2.0449 -1.197809,-2.78641 -0.218092,-0.74151 -0.747137,-1.96388 -1.175654,-2.71639 -0.428516,-0.7525 -0.945471,-1.91905 -1.148788,-2.59234 -0.203319,-0.67328 -0.733178,-1.78915 -1.177468,-2.47971 -0.444292,-0.69054 -0.936253,-1.8277 -1.093246,-2.52699 -0.156995,-0.69931 -0.594249,-1.75898 -0.971678,-2.35484 -0.377427,-0.59586 -0.868585,-1.69535 -1.091462,-2.44331 -0.222877,-0.74797 -0.794583,-2.13634 -1.270459,-3.0853 -0.475875,-0.94894 -1.018235,-2.20303 -1.205242,-2.78684 -0.187007,-0.58382 -0.579014,-1.40084 -0.871126,-1.81561 -0.292111,-0.41476 -0.759865,-1.48951 -1.039453,-2.38834 -0.279587,-0.89883 -0.793854,-2.06601 -1.142814,-2.59373 -0.348961,-0.52772 -0.774232,-1.48305 -0.945045,-2.12298 -0.170815,-0.6399 -0.657342,-1.82027 -1.081172,-2.62302 -0.42383,-0.80275 -0.999583,-2.12902 -1.279451,-2.94726 -0.279868,-0.81825 -0.811622,-1.96571 -1.181675,-2.54993 -0.370053,-0.58422 -0.809597,-1.58658 -0.976764,-2.2275 -0.167167,-0.6409 -0.716456,-1.84154 -1.220643,-2.6681 -0.504188,-0.82654 -0.992765,-1.9013 -1.085727,-2.38834 -0.09296,-0.48704 -0.564174,-1.66174 -1.047138,-2.61045 -0.482965,-0.9487 -0.959578,-2.08317 -1.059142,-2.52103 -0.09956,-0.43787 -0.6020498,-1.63204 -1.1166359,-2.65372 -0.7625934,-1.51409 -1.9294956,-4.42802 -1.9294956,-4.81824 0,-0.0501 17.0748445,-0.0911 37.9440995,-0.0911 20.869254,0 37.9441,0.079 37.9441,0.17571 0,0.0966 -0.29561,0.67842 -0.656911,1.29285 -0.361299,0.61443 -0.787317,1.69707 -0.946706,2.40589 -0.159389,0.7088 -0.590695,1.6819 -0.95846,2.16243 -0.367765,0.48053 -0.944592,1.67731 -1.281839,2.6595 -0.337245,0.9822 -0.867403,2.21182 -1.178124,2.7325 -0.31072,0.52067 -0.802745,1.63551 -1.093386,2.47741 -0.290641,0.8419 -0.890831,2.16197 -1.333761,2.93351 -0.442925,0.77153 -0.80532,1.57989 -0.80532,1.79635 0,0.21645 -0.478774,1.33638 -1.063944,2.48873 -0.58517,1.15234 -1.064464,2.31008 -1.065097,2.57274 -0.0013,0.54944 -0.518501,1.60652 -1.468701,3.00197 -0.364455,0.53524 -0.662648,1.18541 -0.662648,1.44483 0,0.25942 -0.435616,1.28766 -0.968035,2.28498 -0.532421,0.99731 -1.245157,2.6221 -1.583859,3.61063 -0.338703,0.98854 -0.849284,2.1241 -1.13463,2.52348 -0.285341,0.39936 -0.662892,1.2624 -0.839003,1.91786 -0.176108,0.65546 -0.713158,1.90824 -1.19344,2.78397 -0.480281,0.87573 -0.949004,2.00177 -1.041601,2.5023 -0.0926,0.50054 -0.523077,1.46098 -0.956622,2.13431 -0.433543,0.67333 -0.957794,1.70311 -1.165004,2.28842 -0.207207,0.58529 -0.736257,1.77437 -1.175665,2.64238 -0.439409,0.86802 -0.958702,2.1156 -1.153988,2.77239 -0.195283,0.6568 -0.748092,1.9492 -1.228468,2.87203 -0.480372,0.92282 -0.873403,1.88518 -0.873403,2.13858 0,0.25341 -0.411104,1.14112 -0.913564,1.97272 -0.502457,0.83159 -1.099056,2.13815 -1.325772,2.90348 -0.22672,0.76532 -0.773689,1.92888 -1.215495,2.58567 -0.441802,0.6568 -0.803792,1.38738 -0.80442,1.62352 -5.33e-4,0.23614 -0.540346,1.4825 -1.199375,2.76966 -0.659029,1.28717 -1.198234,2.54668 -1.198234,2.7989 0,0.25222 -0.464306,1.33451 -1.03179,2.4051 -0.567483,1.07057 -1.118797,2.36446 -1.225141,2.8753 -0.106342,0.51085 -0.540476,1.47627 -0.964736,2.14539 -0.424263,0.66912 -0.94131,1.77928 -1.148993,2.46702 -0.611725,2.02573 -1.439705,2.56997 -2.362985,1.55321 z m 1.749552,-18.99559 c 1.644202,-0.68599 3.507039,-3.23585 4.177867,-5.71867 0.172943,-0.64008 0.624552,-1.65337 1.003575,-2.25175 0.379023,-0.59837 0.89043,-1.74584 1.136459,-2.54992 0.246029,-0.80408 0.766087,-1.92729 1.155684,-2.49602 0.389596,-0.56873 0.875023,-1.59338 1.078729,-2.277 0.203702,-0.68362 0.732885,-1.89014 1.17596,-2.68115 0.443075,-0.79102 0.944629,-1.96479 1.114566,-2.60839 0.169936,-0.6436 0.672274,-1.81173 1.116304,-2.59585 0.444035,-0.78411 0.920636,-1.92937 1.059121,-2.54503 0.138483,-0.61564 0.595698,-1.65674 1.016033,-2.31353 0.420336,-0.65679 0.841771,-1.55243 0.936522,-1.99029 0.09475,-0.43787 0.631957,-1.75145 1.193791,-2.9191 2.452312,-5.09654 3.164125,-6.70689 3.460376,-7.82847 0.173484,-0.65679 0.657703,-1.73154 1.076045,-2.38835 0.41834,-0.65679 0.876489,-1.70926 1.01811,-2.33883 0.141621,-0.62956 0.5763,-1.60314 0.965953,-2.1635 0.81952,-1.17857 1.346073,-2.76996 1.608124,-4.86024 0.224749,-1.79272 -0.289398,-2.85783 -1.723317,-3.57002 -0.879496,-0.43682 -2.464519,-0.46869 -23.310709,-0.46869 -24.87321,0 -23.830206,-0.0738 -24.778093,1.75301 -0.737195,1.42075 -0.417171,4.03183 0.7496,6.11599 0.518635,0.92641 1.084789,2.22177 1.258118,2.87856 0.173329,0.6568 0.654385,1.73156 1.069013,2.38835 0.414628,0.6568 0.893575,1.72076 1.064327,2.36436 0.170751,0.6436 0.650712,1.77807 1.06658,2.52103 0.415867,0.74297 0.894325,1.88823 1.063241,2.54502 0.168914,0.65681 0.581323,1.61471 0.916463,2.12869 0.335141,0.51397 0.889037,1.70815 1.23088,2.65371 0.341843,0.94557 0.94668,2.25661 1.344081,2.9134 0.397399,0.65679 0.863773,1.73155 1.036386,2.38835 0.172611,0.65679 0.662293,1.76269 1.088183,2.45754 0.425887,0.69486 0.880883,1.73595 1.011099,2.31354 0.13022,0.57759 0.587344,1.68091 1.015832,2.45184 0.428489,0.77092 0.935092,1.93904 1.125787,2.59584 0.190693,0.65679 0.812294,2.0701 1.381336,3.14068 0.569041,1.07058 1.034622,2.14299 1.034622,2.38311 0,0.24014 0.4144,1.10572 0.920888,1.92352 0.506489,0.81778 1.048461,2.05422 1.204384,2.74761 0.278674,1.2393 1.643248,3.65814 2.7636,4.89877 0.446713,0.49467 1.754791,1.28154 2.24252,1.34899 0.04131,0.006 0.460698,-0.15049 0.93196,-0.34711 z"
       style="fill:#f37b47;stroke-width:0.2658228" />
  </g>
</svg>
